<?xml version="1.0" encoding="utf-8"?>
<!-- Generator: Adobe Illustrator 27.0.1, SVG Export Plug-In . SVG Version: 6.00 Build 0)  -->
<svg version="1.1" id="Layer_1" xmlns="http://www.w3.org/2000/svg" xmlns:xlink="http://www.w3.org/1999/xlink" x="0px" y="0px"
	 viewBox="0 0 40.4 24" style="enable-background:new 0 0 40.4 24;" xml:space="preserve">
<g fill="currentColor">
	<path d="M6.3,17.2c-1.4,0-2.6-0.5-3.5-1.4s-1.3-2.1-1.3-3.6c0-1.6,0.5-2.9,1.4-3.8c0.9-1,2.1-1.5,3.6-1.5c1.4,0,2.6,0.5,3.4,1.4
		s1.3,2.2,1.3,3.7c0,1.6-0.5,2.8-1.4,3.8C8.9,16.7,7.8,17.2,6.3,17.2z M6.3,15.3c0.8,0,1.4-0.3,1.9-0.9c0.5-0.6,0.7-1.4,0.7-2.4
		c0-1.1-0.2-1.9-0.7-2.5C7.8,9,7.2,8.7,6.4,8.7C5.6,8.7,4.9,9,4.5,9.6C4,10.2,3.7,11,3.7,12c0,1,0.2,1.8,0.7,2.4
		C4.9,15,5.6,15.3,6.3,15.3z"/>
	<path d="M16.2,11.5c-0.1,0-0.2,0-0.3-0.1s-0.2,0-0.3,0c-0.6,0-1,0.2-1.3,0.6c-0.3,0.4-0.4,0.9-0.4,1.5V17h-2.1V9.7h2.1V11h0
		c0.2-0.5,0.4-0.9,0.7-1.1c0.3-0.2,0.7-0.4,1.2-0.4c0.1,0,0.2,0,0.3,0s0.2,0,0.3,0.1L16.2,11.5z"/>
	<path d="M22.5,17h-2v-1.1h0c-0.2,0.4-0.5,0.7-0.9,0.9c-0.4,0.2-0.8,0.3-1.2,0.3c-0.7,0-1.2-0.2-1.6-0.6C16.2,16.2,16,15.7,16,15
		c0-0.7,0.2-1.2,0.7-1.7c0.4-0.4,1.1-0.7,2.1-0.8l1.8-0.2v-0.1c0-0.4-0.1-0.7-0.3-0.9s-0.6-0.3-1-0.3c-0.3,0-0.6,0.1-1,0.2
		s-0.7,0.3-1.1,0.5l-0.8-1.3c0.5-0.3,1-0.5,1.5-0.7c0.5-0.1,1-0.2,1.6-0.2c1.1,0,1.8,0.3,2.4,0.8c0.5,0.5,0.8,1.3,0.8,2.3V17z
		 M20.5,14v-0.5l-1.4,0.2c-0.4,0.1-0.7,0.2-0.9,0.3c-0.2,0.2-0.3,0.4-0.3,0.7c0,0.3,0.1,0.5,0.3,0.7c0.2,0.2,0.4,0.3,0.8,0.3
		c0.4,0,0.8-0.2,1.1-0.5C20.4,14.9,20.5,14.5,20.5,14z"/>
	<path d="M29.2,16.5c-0.4,0.2-0.8,0.4-1.1,0.5c-0.4,0.1-0.8,0.2-1.2,0.2c-1.2,0-2.2-0.3-2.8-1s-1-1.6-1-2.6c0-1.2,0.4-2.2,1.1-2.9
		c0.7-0.7,1.7-1.1,2.9-1.1c0.4,0,0.8,0,1.2,0.1c0.3,0.1,0.7,0.2,1,0.4l-0.8,1.4c-0.2-0.1-0.4-0.2-0.6-0.3s-0.4-0.1-0.7-0.1
		c-0.6,0-1.1,0.2-1.4,0.6c-0.3,0.4-0.5,0.9-0.5,1.6c0,0.7,0.2,1.2,0.5,1.6s0.8,0.6,1.4,0.6c0.2,0,0.4,0,0.6-0.1s0.5-0.2,0.7-0.3
		L29.2,16.5z"/>
	<path d="M29.5,17V6.4h2.1V17H29.5z"/>
	<path d="M39,13.9h-4.8c0,0.6,0.2,1,0.6,1.3s0.8,0.4,1.4,0.4c0.2,0,0.5-0.1,0.9-0.2s0.7-0.3,1.1-0.6l0.9,1.2c-0.5,0.4-1,0.6-1.5,0.8
		s-1.1,0.3-1.7,0.3c-1.2,0-2.1-0.3-2.7-1c-0.6-0.7-1-1.6-1-2.7c0-1.2,0.3-2.1,1-2.8c0.7-0.7,1.5-1.1,2.6-1.1c1,0,1.8,0.3,2.4,0.9
		c0.6,0.6,0.9,1.5,0.9,2.6V13.9z M37.1,12.6c0-0.6-0.1-1-0.3-1.3s-0.6-0.4-1-0.4c-0.4,0-0.7,0.1-1,0.4s-0.4,0.7-0.5,1.2H37.1z"/>
</g>
</svg>
