<?xml version="1.0" encoding="utf-8"?>
<!-- Generator: Adobe Illustrator 27.0.1, SVG Export Plug-In . SVG Version: 6.00 Build 0)  -->
<svg version="1.1" id="Layer_1" xmlns="http://www.w3.org/2000/svg" xmlns:xlink="http://www.w3.org/1999/xlink" x="0px" y="0px"
	 viewBox="0 0 40.4 24" style="enable-background:new 0 0 40.4 24;" xml:space="preserve">
<g fill="currentColor">
	<path d="M0,15.3l1-1.9c0.6,0.3,1,0.6,1.4,0.7s0.8,0.2,1.3,0.2c0.6,0,1-0.1,1.3-0.3c0.3-0.2,0.4-0.6,0.4-1c0-0.4-0.1-0.7-0.4-0.9
		c-0.2-0.2-0.7-0.4-1.3-0.5c-1.2-0.3-2.1-0.7-2.7-1.2C0.7,9.8,0.4,9.1,0.4,8.2c0-0.9,0.4-1.7,1.1-2.4s1.7-1,3-1C5,4.8,5.5,4.9,6,5
		s1,0.3,1.5,0.5L6.6,7.4C6.2,7.2,5.8,7,5.4,6.9S4.7,6.8,4.4,6.8c-0.5,0-0.9,0.1-1.2,0.3C2.9,7.3,2.8,7.6,2.8,8
		c0,0.3,0.1,0.6,0.4,0.8c0.3,0.2,0.7,0.4,1.4,0.5c1.2,0.3,2,0.7,2.6,1.2c0.5,0.5,0.8,1.3,0.8,2.2c0,1-0.4,1.9-1.1,2.5s-1.8,1-3.1,1
		c-0.6,0-1.3-0.1-1.9-0.2C1.1,15.8,0.5,15.6,0,15.3z"/>
	<path d="M16,16h-2.3v-4.6c0-0.6-0.1-1.1-0.3-1.4c-0.2-0.3-0.6-0.5-1-0.5c-0.5,0-0.8,0.2-1.1,0.5c-0.3,0.3-0.4,0.8-0.4,1.3V16H8.4
		V4.4h2.3v4.8h0c0.3-0.5,0.7-0.8,1.1-1.1c0.4-0.2,0.9-0.3,1.4-0.3c0.9,0,1.6,0.3,2.1,0.8C15.8,9.1,16,10,16,11.1V16z"/>
	<path d="M23.5,16h-2.2v-1.2h0c-0.3,0.4-0.6,0.8-1,1c-0.4,0.2-0.9,0.3-1.4,0.3c-0.7,0-1.3-0.2-1.8-0.6c-0.5-0.4-0.7-1-0.7-1.8
		c0-0.8,0.2-1.4,0.7-1.8c0.5-0.5,1.2-0.8,2.3-0.9l2-0.3v-0.2c0-0.4-0.1-0.7-0.4-0.9s-0.6-0.3-1.1-0.3c-0.3,0-0.7,0.1-1.1,0.2
		c-0.4,0.1-0.8,0.3-1.2,0.5l-0.8-1.4c0.5-0.3,1.1-0.6,1.6-0.7c0.5-0.2,1.1-0.2,1.8-0.2c1.2,0,2,0.3,2.6,0.8c0.6,0.6,0.8,1.4,0.8,2.5
		V16z M21.3,12.7v-0.6l-1.5,0.2c-0.4,0.1-0.7,0.2-1,0.4c-0.2,0.2-0.3,0.4-0.3,0.8c0,0.3,0.1,0.5,0.3,0.7c0.2,0.2,0.5,0.3,0.8,0.3
		c0.5,0,0.9-0.2,1.2-0.5S21.3,13.3,21.3,12.7z"/>
	<path d="M26.8,15L26.8,15l0,4.6h-2.3V8h2.3v1.2h0c0.3-0.5,0.7-0.8,1.1-1.1c0.4-0.2,0.9-0.4,1.5-0.4c1,0,1.8,0.4,2.4,1.1
		c0.6,0.7,0.9,1.7,0.9,2.9c0,1.3-0.3,2.4-1,3.2c-0.7,0.8-1.5,1.2-2.6,1.2c-0.5,0-0.9-0.1-1.3-0.3C27.4,15.7,27.1,15.4,26.8,15z
		 M26.7,11.8v0.7c0,0.6,0.2,1,0.5,1.4c0.3,0.4,0.7,0.5,1.2,0.5c0.6,0,1-0.2,1.4-0.7c0.3-0.5,0.5-1.1,0.5-1.9c0-0.7-0.1-1.3-0.4-1.7
		s-0.7-0.6-1.3-0.6c-0.5,0-1,0.2-1.3,0.6C26.9,10.6,26.7,11.1,26.7,11.8z"/>
	<path d="M40.4,12.6h-5.3c0,0.6,0.2,1.1,0.6,1.4c0.4,0.3,0.9,0.5,1.5,0.5c0.2,0,0.6-0.1,1-0.2s0.8-0.3,1.2-0.6l1,1.4
		c-0.5,0.4-1.1,0.7-1.7,0.9c-0.6,0.2-1.2,0.3-1.9,0.3c-1.3,0-2.3-0.4-3-1.1s-1.1-1.7-1.1-3c0-1.3,0.4-2.3,1.1-3.1s1.7-1.2,2.8-1.2
		c1.1,0,2,0.3,2.7,1s1,1.6,1,2.9V12.6z M38.2,11.2c0-0.6-0.1-1.1-0.4-1.4c-0.3-0.3-0.6-0.4-1.1-0.4c-0.4,0-0.8,0.2-1.1,0.5
		s-0.5,0.8-0.6,1.3H38.2z"/>
</g>
</svg>
