<?xml version="1.0" encoding="utf-8"?>
<!-- Generator: Adobe Illustrator 27.0.1, SVG Export Plug-In . SVG Version: 6.00 Build 0)  -->
<svg version="1.1" id="Layer_1" xmlns="http://www.w3.org/2000/svg" xmlns:xlink="http://www.w3.org/1999/xlink" x="0px" y="0px"
	 viewBox="0 0 40.4 24" style="enable-background:new 0 0 40.4 24;" xml:space="preserve">
<g fill="currentColor">
	<g>
		<path d="M3.4,18.1c-0.4,0-0.8-0.1-1.1-0.4c-0.3-0.3-0.4-0.6-0.4-1c0-0.4,0.1-0.8,0.4-1c0.3-0.3,0.7-0.4,1.1-0.4
			c0.4,0,0.8,0.1,1.1,0.4s0.4,0.6,0.4,1c0,0.4-0.1,0.8-0.4,1C4.2,17.9,3.8,18.1,3.4,18.1z"/>
		<path d="M15.8,17.8h-3.1l-2.1-4c0-0.1-0.1-0.2-0.1-0.3c0-0.1-0.1-0.3-0.1-0.5h0c0,0.1-0.1,0.2-0.1,0.3s-0.1,0.3-0.2,0.5l-2.1,4
			H4.6l3.9-6.1L5,5.7h3.2L10,9.4c0.1,0.1,0.1,0.3,0.2,0.5s0.1,0.4,0.2,0.5h0c0-0.1,0.1-0.3,0.2-0.5c0.1-0.2,0.1-0.4,0.2-0.6l2-3.6
			h2.9l-3.6,6L15.8,17.8z"/>
		<path d="M29.8,17.8h-2.6v-7.3c0-0.4,0-0.8,0-1.2c0-0.4,0-0.9,0.1-1.4h-0.1c-0.1,0.4-0.1,0.7-0.2,0.9s-0.1,0.5-0.2,0.6l-2.9,8.3
			h-2.1l-3-8.2c0-0.1-0.1-0.3-0.2-0.6c-0.1-0.3-0.1-0.6-0.2-1.1h-0.1c0,0.6,0.1,1.1,0.1,1.6c0,0.5,0,1,0,1.5v6.8h-2.4V5.7h3.8
			l2.6,7.3c0.1,0.3,0.2,0.5,0.3,0.8c0.1,0.3,0.1,0.5,0.2,0.8H23c0.1-0.3,0.2-0.6,0.2-0.9c0.1-0.3,0.2-0.5,0.2-0.7L26,5.7h3.8V17.8z"
			/>
		<path d="M38.6,17.8h-7.1V5.7h2.6v10h4.5V17.8z"/>
	</g>
</g>
</svg>
