<?xml version="1.0" encoding="UTF-8"?>
<svg id="Layer_2" data-name="Layer 2" xmlns="http://www.w3.org/2000/svg" xmlns:xlink="http://www.w3.org/1999/xlink" viewBox="0 0 54.75 63">
  <defs>
    <linearGradient id="linear-gradient" x1="-671.5" y1="41.188" x2="-625" y2="41.188" gradientTransform="translate(-625 82.375) rotate(-180)" gradientUnits="userSpaceOnUse">
      <stop offset="0" stop-color="#93278f"/>
      <stop offset="1" stop-color="#af53ac"/>
    </linearGradient>
  </defs>
  <g id="Layer_1-2" data-name="Layer 1">
    <g>
      <g>
        <path d="m11.625.5c-2.131,0-3.875,1.744-3.875,3.875v54.25c0,2.131,1.744,3.875,3.875,3.875h38.75c2.131,0,3.875-1.744,3.875-3.875V16L38.75.5H11.625Z" style="fill: #fff;"/>
        <path d="m50.375,63H11.625c-2.413,0-4.375-1.963-4.375-4.375V4.375c0-2.413,1.962-4.375,4.375-4.375h27.332l15.793,15.793v42.832c0,2.412-1.963,4.375-4.375,4.375ZM11.625,1c-1.861,0-3.375,1.514-3.375,3.375v54.25c0,1.861,1.514,3.375,3.375,3.375h38.75c1.861,0,3.375-1.514,3.375-3.375V16.207L38.543,1H11.625Z" style="fill: #93278f;"/>
      </g>
      <path d="m44.581,52.812H8.125v1.938h36.456c1.055,0,1.919-.872,1.919-1.938v-1.938c0,1.066-.863,1.938-1.919,1.938Z" style="fill: #e6e6e6;"/>
      <path d="m42.625,16h11.625L38.75.5v11.625c0,2.131,1.744,3.875,3.875,3.875Z" style="fill: #93278f;"/>
      <path d="m0,31.5c0-1.066.872-1.938,1.938-1.938h42.625c1.066,0,1.938.872,1.938,1.938v19.375c0,1.066-.872,1.938-1.938,1.938H1.938c-1.066,0-1.938-.872-1.938-1.938v-19.375Z" style="fill: url(#linear-gradient);"/>
      <g>
        <path d="m5.504,40.865v-.031c0-3.138,2.401-5.795,5.779-5.795,1.68,0,2.801.4,3.825,1.137.192.145.399.416.399.801,0,.527-.432.977-.976.977-.257,0-.448-.113-.608-.225-.721-.528-1.504-.881-2.721-.881-2.065,0-3.634,1.809-3.634,3.954v.032c0,2.305,1.521,4.002,3.81,4.002,1.057,0,2.017-.337,2.705-.85v-2.096h-2.209c-.48,0-.881-.369-.881-.849s.4-.864.881-.864h3.121c.561,0,.992.432.992.992v2.993c0,.56-.224.96-.688,1.249-.961.64-2.305,1.216-3.986,1.216-3.505,0-5.811-2.497-5.811-5.763Z" style="fill: #fff;"/>
        <path d="m18.545,36.225c0-.561.432-.993.992-.993h3.186c3.521,0,5.954,2.417,5.954,5.57v.032c0,3.152-2.433,5.602-5.954,5.602h-3.186c-.561,0-.992-.432-.992-.992v-9.219Zm4.178,8.419c2.353,0,3.889-1.585,3.889-3.778v-.031c0-2.193-1.536-3.81-3.889-3.81h-2.209v7.619h2.209Z" style="fill: #fff;"/>
        <path d="m31.057,36.225c0-.561.432-.993.992-.993h4.034c1.28,0,2.288.353,2.929.993.496.496.752,1.104.752,1.855v.033c0,1.344-.768,2.064-1.6,2.496,1.312.448,2.225,1.201,2.225,2.721v.033c0,2-1.648,3.072-4.146,3.072h-4.193c-.561,0-.992-.432-.992-.992v-9.219Zm4.626,3.729c1.265,0,2.112-.496,2.112-1.521v-.032c0-.88-.703-1.424-1.969-1.424h-2.832v2.977h2.688Zm.576,4.738c1.345,0,2.161-.528,2.161-1.537v-.031c0-.945-.752-1.505-2.305-1.505h-3.121v3.073h3.265Z" style="fill: #fff;"/>
      </g>
    </g>
  </g>
</svg>