<?xml version="1.0" encoding="UTF-8"?>
<svg id="Layer_2" data-name="Layer 2" xmlns="http://www.w3.org/2000/svg" xmlns:xlink="http://www.w3.org/1999/xlink" viewBox="0 0 54.75 63">
  <defs>
    <linearGradient id="linear-gradient" x1="-403.5" y1="41.188" x2="-357" y2="41.188" gradientTransform="translate(-357 82.375) rotate(-180)" gradientUnits="userSpaceOnUse">
      <stop offset="0" stop-color="#93278f"/>
      <stop offset="1" stop-color="#af53ac"/>
    </linearGradient>
  </defs>
  <g id="Layer_1-2" data-name="Layer 1">
    <g>
      <g>
        <path d="m11.625.5c-2.131,0-3.875,1.744-3.875,3.875v54.25c0,2.131,1.744,3.875,3.875,3.875h38.75c2.131,0,3.875-1.744,3.875-3.875V16L38.75.5H11.625Z" style="fill: #fff;"/>
        <path d="m50.375,63H11.625c-2.413,0-4.375-1.963-4.375-4.375V4.375c0-2.413,1.962-4.375,4.375-4.375h27.332l15.793,15.793v42.832c0,2.412-1.963,4.375-4.375,4.375ZM11.625,1c-1.861,0-3.375,1.514-3.375,3.375v54.25c0,1.861,1.514,3.375,3.375,3.375h38.75c1.861,0,3.375-1.514,3.375-3.375V16.207L38.543,1H11.625Z" style="fill: #93278f;"/>
      </g>
      <path d="m44.581,52.812H8.125v1.938h36.456c1.055,0,1.919-.872,1.919-1.938v-1.938c0,1.066-.863,1.938-1.919,1.938Z" style="fill: #e6e6e6;"/>
      <path d="m42.625,16h11.625L38.75.5v11.625c0,2.131,1.744,3.875,3.875,3.875Z" style="fill: #93278f;"/>
      <path d="m0,31.5c0-1.066.872-1.938,1.938-1.938h42.625c1.066,0,1.938.872,1.938,1.938v19.375c0,1.066-.872,1.938-1.938,1.938H1.938c-1.066,0-1.938-.872-1.938-1.938v-19.375Z" style="fill: url(#linear-gradient);"/>
      <g>
        <path d="m8.145,45.188c-.225-.16-.384-.432-.384-.752,0-.513.416-.912.929-.912.271,0,.447.08.576.176.928.736,1.92,1.152,3.137,1.152s1.984-.576,1.984-1.408v-.033c0-.8-.447-1.232-2.528-1.712-2.386-.576-3.729-1.28-3.729-3.346v-.032c0-1.92,1.601-3.249,3.825-3.249,1.409,0,2.545.368,3.554,1.04.225.129.432.4.432.785,0,.512-.416.912-.928.912-.192,0-.353-.048-.513-.145-.864-.56-1.696-.848-2.577-.848-1.152,0-1.824.592-1.824,1.328v.032c0,.864.512,1.249,2.673,1.761,2.369.576,3.585,1.424,3.585,3.281v.032c0,2.097-1.648,3.345-4.001,3.345-1.521,0-2.962-.48-4.21-1.408Z" style="fill: #fff;"/>
        <path d="m18.177,40.865v-.031c0-3.153,2.433-5.795,5.874-5.795s5.843,2.609,5.843,5.763v.032c0,1.264-.416,2.465-1.137,3.441l.721.592c.224.192.368.433.368.769,0,.513-.416.944-.929.944-.288,0-.513-.111-.688-.288l-.8-.72c-.944.672-2.112,1.056-3.409,1.056-3.441,0-5.843-2.608-5.843-5.763Zm6.05,1.473c0-.512.417-.943.93-.943.287,0,.463.096.688.287l1.441,1.312c.352-.607.543-1.328.543-2.129v-.031c0-2.178-1.584-3.986-3.809-3.986s-3.777,1.777-3.777,3.954v.032c0,2.177,1.584,3.969,3.809,3.969.736,0,1.393-.191,1.938-.512l-1.393-1.185c-.225-.192-.369-.433-.369-.769Z" style="fill: #fff;"/>
        <path d="m32.272,36.128c0-.544.433-.977.993-.977.543,0,.976.433.976.977v8.516h5.074c.496,0,.896.399.896.896s-.4.896-.896.896h-6.05c-.561,0-.993-.432-.993-.992v-9.315Z" style="fill: #fff;"/>
      </g>
    </g>
  </g>
</svg>