<?xml version="1.0" encoding="utf-8"?>
<!-- Generator: Adobe Illustrator 26.5.0, SVG Export Plug-In . SVG Version: 6.00 Build 0)  -->
<svg version="1.1" id="Layer_1" xmlns="http://www.w3.org/2000/svg" xmlns:xlink="http://www.w3.org/1999/xlink" x="0px" y="0px"
	 viewBox="0 0 200 200" style="enable-background:new 0 0 200 200;" xml:space="preserve">
<style type="text/css">
	.st0{fill:url(#SVGID_1_);}
	.st1{fill:#FFFFFF;}
</style>
<linearGradient id="SVGID_1_" gradientUnits="userSpaceOnUse" x1="0" y1="100" x2="200" y2="100" gradientTransform="matrix(1 0 0 -1 0 200)">
	<stop  offset="0" style="stop-color:#FF8A11"/>
	<stop  offset="1" style="stop-color:#E81894"/>
</linearGradient>
<path class="st0" d="M100,0c26.5,0,52,10.5,70.7,29.3C189.5,48,200,73.5,200,100c0,26.5-10.5,52-29.3,70.7
	C152,189.5,126.5,200,100,200H24c-6.4,0-12.5-2.5-17-7c-4.5-4.5-7-10.6-7-17v-76c0-26.5,10.5-52,29.3-70.7C48,10.5,73.5,0,100,0
	L100,0z"/>
<path class="st1" d="M85.1,180.6l-14.8-11l32-43.4c-1.7,0.2-3.2,0.4-4.4,0.5c-1.2,0.1-2.2,0.2-3,0.2c-10.8,0-20.2-4.1-28.1-12.3
	c-3.8-3.9-6.8-8.5-8.8-13.5c-2-5.1-3-10.5-2.9-15.9c-0.1-5.9,1-11.7,3.3-17.1c2.3-5.4,5.6-10.3,9.8-14.3c4.1-4.2,9-7.6,14.4-9.8
	c5.4-2.3,11.3-3.4,17.1-3.3c5.9-0.1,11.7,1.1,17.2,3.3c5.5,2.2,10.4,5.5,14.6,9.7c9,8.6,13.5,18.7,13.5,30.4
	c0,10.3-4.4,21.5-13.2,33.6L85.1,180.6z M74.7,83.6c0,3.3,0.6,6.7,1.8,9.8c1.3,3.1,3.1,5.9,5.5,8.3c2.4,2.4,5.2,4.3,8.3,5.6
	c3.1,1.3,6.4,1.9,9.8,1.9c6.7,0,13.1-2.6,17.9-7.3c4.7-4.7,7.4-11.1,7.5-17.8c0-3.3-0.7-6.6-1.9-9.7c-1.3-3.1-3.2-5.9-5.5-8.2
	c-2.4-2.3-5.2-4.2-8.2-5.5c-3.1-1.3-6.4-1.9-9.7-1.9c-3.3-0.1-6.6,0.6-9.6,1.8c-3.1,1.3-5.8,3.1-8.1,5.5c-2.4,2.3-4.3,5-5.5,8
	C75.3,77.1,74.7,80.3,74.7,83.6L74.7,83.6z"/>
</svg>
