
<svg xmlns="http://www.w3.org/2000/svg"
	 viewBox="0 0 24 24" xml:space="preserve">

<g>
	<path fill="currentColor" d="M7.3,8.7c0,2-1.7,3.7-3.7,3.7S0,10.7,0,8.7S1.7,5,3.7,5S7.3,6.7,7.3,8.7z M5.5,8.3H4V6.8c0-0.2-0.1-0.4-0.4-0.4
		S3.3,6.6,3.3,6.8v1.5H1.8c-0.2,0-0.4,0.1-0.4,0.4S1.6,9,1.8,9h1.5v1.5c0,0.2,0.1,0.4,0.4,0.4S4,10.7,4,10.5V9h1.5
		c0.2,0,0.4-0.1,0.4-0.4S5.7,8.3,5.5,8.3z"/>
</g>
<path fill="currentColor" d="M15,8h5l-6-6v5C14,7.6,14.4,8,15,8z"/>
<path fill="currentColor" opacity="0.3" d="M14,2H5C4.4,2,4,2.4,4,3v18c0,0.6,0.4,1,1,1h14c0.6,0,1-0.4,1-1V8L14,2z"/>
<path fill="currentColor" d="M17.7,18.8L17.7,18.8c0,0.3-0.3,0.6-0.6,0.6h-2.1c-0.5,0-0.8-0.4-0.8-0.8v-2.7h-1.1v0h0v2.7
	c0,0.5-0.4,0.8-0.8,0.8h-2.2c-0.4,0-0.7-0.2-0.8-0.6l-0.9-2.4L7.5,19c-0.1,0.3-0.3,0.4-0.6,0.4h0c-0.5,0-0.8-0.5-0.6-0.9l1.3-3.3
	c0.1-0.3,0.4-0.5,0.8-0.5h0.1c0.3,0,0.7,0.2,0.8,0.5l1,2.5c0.1,0.3,0.4,0.5,0.8,0.5h0.8v-2.4H11c-0.3,0-0.6-0.3-0.6-0.6v0
	c0-0.3,0.3-0.6,0.6-0.6h3.6c0.5,0,0.8,0.4,0.8,0.8v2.7h1.7C17.5,18.2,17.7,18.5,17.7,18.8z"/>
</svg>
