
<svg xmlns="http://www.w3.org/2000/svg"
	 viewBox="0 0 24 24" xml:space="preserve">

<path fill="currentColor" d="M22.1,16.9V6.2L12,0.4L2.7,5.7C2.2,6,1.9,6.5,1.9,7.1v10.7L12,23.6l9.3-5.4C21.8,18,22.1,17.5,22.1,16.9z"/>
<path fill="#FFFFFF" d="M8,11.7c-0.2,0-0.5,0-0.7,0c-0.2,0-0.3,0-0.4-0.2c-0.1-0.2-0.4-0.4-0.2-0.6c0.2-0.3,0.4-0.6,0.8-0.5
	c0.2,0,0.4,0,0.6,0c0.1-0.1,0.3-0.1,0.5-0.1c0.3,0,0.4-0.1,0.4-0.4c0-0.3,0-0.6,0-0.8c0-0.2,0-0.4,0-0.7c0-0.2,0-0.5,0-0.7
	C9,7.4,9.2,7.4,9.5,7.4c0.8,0,1.7,0,2.5,0c0.5,0.1,0.9-0.1,1.2-0.5c0.1-0.1,0.2-0.2,0.3-0.3c0.2-0.2,0.4-0.4,0.7-0.3
	c0.3,0.2,0.5,0.5,0.5,0.9c-0.2,0.4-0.6,0.7-0.9,1c-0.1,0.1-0.3,0.3-0.4,0.4c-0.2,0.2-0.5,0.2-0.8,0.2c-0.6,0-1.3,0-1.9,0
	c-0.6,0-0.6,0-0.6,0.6c0,0.1,0,0.1,0,0.2c0,0.2,0,0.5,0,0.7c0,0.2,0,0.5,0,0.7c0,0.2,0,0.4,0,0.6c0,0.4,0,0.9,0,1.3
	c0,0.4,0,0.4,0.5,0.5c0.2,0,0.3,0,0.5,0c0.6,0,1.1,0,1.7,0c0.2,0,0.5,0,0.7,0c0.5-0.1,0.8-0.3,0.8-0.8c0-0.4,0-0.7,0-1.1
	c0-0.4-0.1-0.8,0.1-1.1c0.1-0.1,0.1-0.2,0.2-0.3c0.4-0.3,0.4-0.7,0.5-1.1c0.1-0.3,0.3-0.5,0.6-0.6C16,8,16.3,7.9,16.5,8
	c0.1,0,0.1,0,0.2,0c0.2,0.1,0.5,0.3,0.6,0.5c0.1,0.2,0.1,0.3,0.2,0.5c0,0.2,0,0.3,0,0.5c-0.1,0.1-0.1,0.3-0.2,0.4
	c-0.2,0.2-0.4,0.3-0.7,0.4c-0.1,0.1-0.1,0.1-0.2,0.1c-0.4,0.1-0.5,0.3-0.5,0.7c0,0.3,0,0.7,0,1c0,0.2,0,0.5,0,0.7c0,0.2,0,0.5,0,0.7
	c0,0.1,0,0.2,0.1,0.2c0.1,0.1,0.2,0.2,0.2,0.3c0.1,0.1,0.1,0.1,0.2,0.2c0.1,0.1,0.2,0.2,0.3,0.3c0,0,0.1,0.1,0.1,0.1
	c0.2,0.2,0.3,0.3,0.3,0.5c0,0.1,0,0.2,0,0.3c-0.1,0.5-0.2,0.6-0.6,0.6c-0.1,0-0.3,0-0.4,0c-0.2-0.1-0.3-0.3-0.5-0.4
	c-0.1-0.1-0.1-0.1-0.2-0.2c-0.1-0.1-0.1-0.1-0.2-0.2c-0.1-0.1-0.1-0.1-0.2-0.2c-0.1-0.1-0.1-0.1-0.2-0.2c-0.1-0.1-0.2-0.1-0.4-0.1
	c-0.1,0-0.2,0-0.2,0c-0.1,0-0.2,0-0.3,0c-0.1,0-0.1,0-0.2,0c-0.2,0-0.4-0.1-0.5,0.1c-0.1,0.2,0,0.4,0.1,0.6c0.1,0.1,0.1,0.1,0.2,0.2
	c0.1,0.2,0.2,0.5,0.2,0.7c-0.1,0.3-0.2,0.7-0.5,0.9c-0.2,0.2-0.4,0.2-0.6,0.3c-0.2,0-0.4,0-0.6-0.1c-0.3-0.1-0.6-0.4-0.7-0.7
	c-0.2-0.4-0.1-0.8,0.1-1.1c0.1-0.1,0.1-0.2,0.2-0.3c0.1-0.2,0.2-0.4,0.1-0.6c-0.1-0.2-0.3-0.1-0.5-0.1c-0.3,0-0.5,0-0.8,0
	c-0.3,0-0.5,0.1-0.6,0.5c0,0.4-0.2,0.7-0.5,0.9c-0.2,0.2-0.5,0.4-0.8,0.2c-0.7-0.1-1-0.4-1.1-1c-0.1-0.5,0.2-1,0.8-1.3
	c0.1-0.1,0.2-0.1,0.3-0.2c0.3-0.2,0.5-0.4,0.5-0.8c0-0.4,0-0.7,0-1.1c0-0.3-0.1-0.4-0.4-0.4C8.3,11.8,8.1,11.8,8,11.7z"/>
</svg>
