
<svg xmlns="http://www.w3.org/2000/svg" 
	 viewBox="0 0 24 24" xml:space="preserve">

<path fill="currentColor" d="M15,8h5l-6-6v5C14,7.6,14.4,8,15,8z"/>
<path fill="currentColor" opacity="0.3" d="M14,2H5C4.4,2,4,2.4,4,3v18c0,0.6,0.4,1,1,1h14c0.6,0,1-0.4,1-1V8L14,2z"/>
<path fill="currentColor" d="M14.6,14.8h-0.5h-0.6c-0.3,0-0.5,0.2-0.6,0.4c0,0.1,0,0.2,0,0.2v1.7l-1.7-2.2l0,0c-0.1-0.1-0.2-0.1-0.3-0.1
	h-0.3c-0.3,0-0.6,0.2-0.7,0.5c0,0,0,0.1,0,0.1v2.1c-0.1,0.5-0.4,0.7-0.8,0.7c-0.5,0-0.8-0.3-0.8-1v-1.9c0-0.3-0.3-0.6-0.6-0.6h0
	c-0.4,0-0.7,0.3-0.7,0.7v1.9c0,1.4,0.8,2.1,2.1,2.1c0.3,0,0.6,0,0.9-0.1c0.7-0.2,1.1-0.7,1.3-1.5c0-0.2,0-0.3,0-0.5v-0.4l1.7,2.2
	l0,0c0.1,0.2,0.3,0.3,0.5,0.3h0.8h0.4c1.7,0,2.6-1,2.6-2.3v0C17.2,15.8,16.2,14.8,14.6,14.8z M15.9,17.1c0,0.7-0.5,1.2-1.3,1.2h-0.5
	v-2.3h0.5C15.4,15.9,15.9,16.4,15.9,17.1L15.9,17.1z"/>
</svg>
