<?xml version="1.0" encoding="utf-8"?>
<!-- Generator: Adobe Illustrator 27.3.1, SVG Export Plug-In . SVG Version: 6.00 Build 0)  -->
<svg version="1.1" id="Layer_1" xmlns="http://www.w3.org/2000/svg" xmlns:xlink="http://www.w3.org/1999/xlink" x="0px" y="0px"
	 viewBox="0 0 500 500" style="enable-background:new 0 0 500 500;" xml:space="preserve">
<style type="text/css">
	.st0{opacity:0.5;}
	.st1{clip-path:url(#SVGID_00000139281989954920897050000014515496370984535949_);}
	.st2{fill:url(#Path_160_00000054986794439584962060000008193173306374851244_);}
	.st3{fill:url(#Path_161_00000105415836930323707090000010545830107192652214_);}
	.st4{fill:url(#Path_162_00000108989995930831984560000016540489571599790476_);}
	.st5{fill:url(#Path_163_00000129178511794934213720000005055868991991713184_);}
	.st6{fill:url(#Path_164_00000009555614992278741640000010975080830481903024_);}
	.st7{fill:url(#Path_165_00000085953160554570436010000009110858119726302103_);}
	.st8{fill:url(#Path_166_00000145029874973545029410000017587198093357336760_);}
	.st9{fill:url(#Path_167_00000150062728214865066780000006396567929232953765_);}
	.st10{fill:url(#Path_168_00000100382936538879654820000017746103623315640197_);}
	.st11{fill:url(#Path_169_00000099622153495975983770000002587659361707080577_);}
	.st12{fill:url(#Path_170_00000023961643130718214420000009804233521312051644_);}
	.st13{fill:url(#Path_171_00000183933891416914671980000016044246245276496307_);}
	.st14{fill:url(#Path_172_00000140729623104794677820000008849869893643653554_);}
	.st15{fill:url(#Path_173_00000048467315922857435630000009302050299618522525_);}
	.st16{fill:url(#Path_174_00000099646913891547946660000016679786000550705047_);}
	.st17{fill:url(#Path_175_00000009578026786949630600000000597626245512231817_);}
	.st18{fill:url(#Path_176_00000116943344363592208640000016153910375429241022_);}
	.st19{fill:url(#Path_177_00000173878072924837332200000006235741069026322317_);}
	.st20{fill:url(#Path_178_00000132047238564937692520000017181364841840899990_);}
	.st21{fill:url(#Path_179_00000127760367342624427690000007817485412422659512_);}
	.st22{fill:url(#Path_180_00000016046504293641720630000016507410017210066610_);}
	.st23{fill:url(#Path_181_00000008838590178714009730000001222209347086964646_);}
	.st24{fill:url(#Path_182_00000049903787401274116090000014562168067475624077_);}
	.st25{fill:url(#Path_183_00000024691940062193572860000001462809460302823808_);}
	.st26{fill:url(#Path_184_00000053532139613021159710000015843304341825350787_);}
	.st27{fill:url(#Path_185_00000135678761618014031920000010913866214244156592_);}
	.st28{fill:url(#Path_186_00000060014104580463180970000018031571820578854533_);}
	.st29{fill:url(#Path_187_00000067196357028117815980000005310926485379911311_);}
	.st30{fill:url(#Path_188_00000029733380787095776600000008507779217572296884_);}
	.st31{fill:url(#Path_189_00000103980868675302519670000011222551775055080091_);}
	.st32{fill:url(#Path_190_00000173144624686073746180000008207811680834910359_);}
	.st33{fill:url(#Path_191_00000165928446352667317090000010750638540192920748_);}
	.st34{fill:url(#Path_192_00000123442328578775056170000007781944059922409901_);}
</style>
<g id="Group_284" class="st0">
	<g>
		<defs>
			<rect id="SVGID_1_" x="18.3" width="463.5" height="500"/>
		</defs>
		<clipPath id="SVGID_00000108271761705608678290000003114482667672659893_">
			<use xlink:href="#SVGID_1_"  style="overflow:visible;"/>
		</clipPath>
		<g id="Group_283" style="clip-path:url(#SVGID_00000108271761705608678290000003114482667672659893_);">
			
				<linearGradient id="Path_160_00000147904666432321577110000012673279674613267076_" gradientUnits="userSpaceOnUse" x1="-0.6883" y1="499.8362" x2="-0.2026" y2="500.2095" gradientTransform="matrix(124.6373 0 0 -126.6813 308.2058 63591.4492)">
				<stop  offset="0" style="stop-color:#93278F"/>
				<stop  offset="0" style="stop-color:#952C91"/>
				<stop  offset="1" style="stop-color:#FFFFFF;stop-opacity:0"/>
			</linearGradient>
			<path id="Path_160" style="fill:url(#Path_160_00000147904666432321577110000012673279674613267076_);" d="M283.7,239.6
				c0.1,0.2,0.2,0.4,0.1,0.5l-7.9,33.8c-0.1,0.2-0.2,0.4-0.4,0.5l-33.2,10c-0.2,0.1-0.5,0-0.6-0.2l-25.3-23.8
				c-0.2-0.2-0.2-0.4-0.2-0.6l7.9-33.8c0.1-0.2,0.2-0.4,0.4-0.5l33.2-10c0.2-0.1,0.5,0,0.6,0.1L283.7,239.6
				C283.7,239.6,283.7,239.6,283.7,239.6 M274.8,273.3l7.7-33L257.7,217l-32.5,9.8l-7.7,33l24.7,23.3L274.8,273.3z"/>
			
				<linearGradient id="Path_161_00000091007491524298058810000005905536383330875033_" gradientUnits="userSpaceOnUse" x1="-0.6118" y1="499.818" x2="-0.126" y2="500.1913" gradientTransform="matrix(135.3498 0 0 -131.4062 302.848 65951.5234)">
				<stop  offset="0" style="stop-color:#93278F"/>
				<stop  offset="0" style="stop-color:#952C91"/>
				<stop  offset="1" style="stop-color:#FFFFFF;stop-opacity:0"/>
			</linearGradient>
			<path id="Path_161" style="fill:url(#Path_161_00000091007491524298058810000005905536383330875033_);" d="M286.6,242.1
				c0.1,0.2,0.2,0.4,0.1,0.6l-11.5,35c-0.1,0.2-0.3,0.4-0.5,0.4l-36.1,7.5c-0.2,0-0.5,0-0.6-0.2l-24.6-27.5
				c-0.2-0.2-0.2-0.4-0.1-0.6l11.5-35c0.1-0.2,0.3-0.4,0.5-0.4l36.1-7.5c0.2,0,0.5,0,0.6,0.2L286.6,242.1
				C286.6,242.1,286.6,242.1,286.6,242.1 M274.1,277l11.3-34.3l-24.1-27l-35.4,7.3l-11.3,34.3l24.1,27L274.1,277z"/>
			
				<linearGradient id="Path_162_00000160887189027788800310000010272545172494403771_" gradientUnits="userSpaceOnUse" x1="-0.5476" y1="499.8044" x2="-6.191023e-02" y2="500.1776" gradientTransform="matrix(145.856 0 0 -135.1888 297.5978 67840.9141)">
				<stop  offset="0" style="stop-color:#93278F"/>
				<stop  offset="0" style="stop-color:#952C91"/>
				<stop  offset="1" style="stop-color:#FFFFFF;stop-opacity:0"/>
			</linearGradient>
			<path id="Path_162" style="fill:url(#Path_162_00000160887189027788800310000010272545172494403771_);" d="M266,213.5l23.5,31.5
				c0.1,0.2,0.2,0.4,0.1,0.6l-15.4,36.1c-0.1,0.2-0.3,0.4-0.5,0.4l-39,4.6c-0.2,0-0.5-0.1-0.6-0.3L210.5,255
				c-0.1-0.2-0.2-0.4-0.1-0.6l15.4-36.1c0.1-0.2,0.3-0.4,0.5-0.4l39-4.6C265.6,213.3,265.8,213.4,266,213.5 M288.2,245.5l-23.1-30.9
				l-38.2,4.5l-15.1,35.4l23.1,30.9l38.2-4.5L288.2,245.5z"/>
			
				<linearGradient id="Path_163_00000125563992898653043670000011205016595073144485_" gradientUnits="userSpaceOnUse" x1="-0.4939" y1="499.7952" x2="-8.170263e-03" y2="500.1685" gradientTransform="matrix(155.999 0 0 -137.8518 292.522 69171.0859)">
				<stop  offset="0" style="stop-color:#93278F"/>
				<stop  offset="0" style="stop-color:#952C91"/>
				<stop  offset="1" style="stop-color:#FFFFFF;stop-opacity:0"/>
			</linearGradient>
			<path id="Path_163" style="fill:url(#Path_163_00000125563992898653043670000011205016595073144485_);" d="M270.2,212.8
				C270.2,212.8,270.3,212.8,270.2,212.8l22,35.6c0.1,0.2,0.1,0.4,0,0.7l-19.7,36.8c-0.1,0.2-0.3,0.3-0.6,0.3l-41.7,1.3
				c-0.2,0-0.5-0.1-0.6-0.3l-22-35.5c-0.1-0.2-0.1-0.4,0-0.7l19.7-36.8c0.1-0.2,0.3-0.3,0.6-0.3l41.7-1.3
				C269.9,212.5,270.1,212.6,270.2,212.8 M291,248.8l-21.6-34.9l-41,1.2L209,251.2l21.6,34.9l41-1.2L291,248.8z"/>
			
				<linearGradient id="Path_164_00000147193410937940009610000002735248846151577247_" gradientUnits="userSpaceOnUse" x1="-0.4491" y1="499.7617" x2="3.666042e-02" y2="500.1349" gradientTransform="matrix(165.6119 0 0 -148.5492 287.7195 74514.4609)">
				<stop  offset="0" style="stop-color:#93278F"/>
				<stop  offset="0" style="stop-color:#952C91"/>
				<stop  offset="1" style="stop-color:#FFFFFF;stop-opacity:0"/>
			</linearGradient>
			<path id="Path_164" style="fill:url(#Path_164_00000147193410937940009610000002735248846151577247_);" d="M274.8,212.4
				C274.9,212.5,274.9,212.5,274.8,212.4l20.1,39.8c0.1,0.2,0.1,0.5,0,0.7l-24.3,37.2c-0.1,0.2-0.4,0.3-0.6,0.3l-44.3-2.5
				c-0.2,0-0.4-0.1-0.5-0.4l-20-39.7c-0.1-0.2-0.1-0.5,0-0.7l24.3-37.2c0.1-0.2,0.4-0.3,0.6-0.3l44.3,2.5
				C274.5,212.2,274.7,212.3,274.8,212.4 M293.6,252.5l-19.7-39l-43.6-2.5l-23.9,36.5l19.7,39l43.6,2.5L293.6,252.5z"/>
			
				<linearGradient id="Path_165_00000155862284780132845510000002796153612492771226_" gradientUnits="userSpaceOnUse" x1="-0.412" y1="499.7207" x2="7.375223e-02" y2="500.094" gradientTransform="matrix(174.5042 0 0 -164.1165 283.2719 82290.3359)">
				<stop  offset="0" style="stop-color:#93278F"/>
				<stop  offset="0" style="stop-color:#952C91"/>
				<stop  offset="1" style="stop-color:#FFFFFF;stop-opacity:0"/>
			</linearGradient>
			<path id="Path_165" style="fill:url(#Path_165_00000155862284780132845510000002796153612492771226_);" d="M279.7,212.5
				c0,0,0.1,0.1,0.1,0.1l17.5,43.9c0.1,0.2,0.1,0.5-0.1,0.6l-29.2,37.1c-0.1,0.2-0.4,0.3-0.6,0.2l-46.8-6.8c-0.2,0-0.4-0.2-0.5-0.4
				l-17.5-43.9c-0.1-0.2-0.1-0.5,0.1-0.6l29.2-37.1c0.1-0.2,0.4-0.3,0.6-0.2l46.8,6.8C279.5,212.2,279.6,212.3,279.7,212.5
				 M296,256.7l-17.3-43.2l-46-6.7L204,243.3l17.3,43.2l46,6.7L296,256.7z"/>
			
				<linearGradient id="Path_166_00000029742680106331430380000015944130787881262744_" gradientUnits="userSpaceOnUse" x1="-0.3818" y1="499.6867" x2="0.1039" y2="500.06" gradientTransform="matrix(182.476 0 0 -179.7787 279.2844 90113.625)">
				<stop  offset="0" style="stop-color:#93278F"/>
				<stop  offset="0" style="stop-color:#952C91"/>
				<stop  offset="1" style="stop-color:#FFFFFF;stop-opacity:0"/>
			</linearGradient>
			<path id="Path_166" style="fill:url(#Path_166_00000029742680106331430380000015944130787881262744_);" d="M284.9,213
				c0,0.1,0.1,0.1,0.1,0.2l14.5,48.2c0.1,0.2,0,0.5-0.1,0.6L265,298.6c-0.2,0.2-0.4,0.2-0.6,0.2l-48.9-11.5
				c-0.2-0.1-0.4-0.2-0.5-0.4l-14.5-48.2c-0.1-0.2,0-0.5,0.1-0.6l34.4-36.6c0.2-0.2,0.4-0.2,0.6-0.2l48.9,11.5
				C284.7,212.7,284.8,212.8,284.9,213 M298.2,261.4l-14.3-47.5l-48.2-11.4l-33.9,36.1l14.3,47.5l48.2,11.4L298.2,261.4z"/>
			
				<linearGradient id="Path_167_00000069365518523576984100000004719170330934441096_" gradientUnits="userSpaceOnUse" x1="-0.358" y1="499.6583" x2="0.1278" y2="500.0315" gradientTransform="matrix(189.3052 0 0 -195.342 275.8697 97887.4844)">
				<stop  offset="0" style="stop-color:#93278F"/>
				<stop  offset="0" style="stop-color:#952C91"/>
				<stop  offset="1" style="stop-color:#FFFFFF;stop-opacity:0"/>
			</linearGradient>
			<path id="Path_167" style="fill:url(#Path_167_00000069365518523576984100000004719170330934441096_);" d="M290.4,214
				c0.1,0.1,0.1,0.2,0.1,0.3l10.9,52.4c0,0.2,0,0.5-0.2,0.6l-39.8,35.7c-0.2,0.2-0.4,0.2-0.6,0.1l-50.8-16.8
				c-0.2-0.1-0.4-0.3-0.4-0.5l-10.9-52.4c0-0.2,0-0.5,0.2-0.6l39.8-35.7c0.2-0.2,0.4-0.2,0.6-0.1l50.8,16.8
				C290.2,213.8,290.3,213.8,290.4,214 M300.1,266.5l-10.8-51.7l-50.1-16.5l-39.3,35.1l10.8,51.7l50.1,16.5L300.1,266.5z"/>
			
				<linearGradient id="Path_168_00000007388010393320254390000011806110403124124567_" gradientUnits="userSpaceOnUse" x1="-0.3402" y1="499.6345" x2="0.1455" y2="500.0077" gradientTransform="matrix(194.7509 0 0 -210.6108 273.1522 105514.2344)">
				<stop  offset="0" style="stop-color:#93278F"/>
				<stop  offset="0" style="stop-color:#952C91"/>
				<stop  offset="1" style="stop-color:#FFFFFF;stop-opacity:0"/>
			</linearGradient>
			<path id="Path_168" style="fill:url(#Path_168_00000007388010393320254390000011806110403124124567_);" d="M296.1,215.5
				c0.1,0.1,0.1,0.2,0.1,0.3l6.7,56.6c0,0.2-0.1,0.5-0.3,0.6l-45.5,34.1c-0.2,0.1-0.4,0.2-0.7,0.1l-52.3-22.5
				c-0.2-0.1-0.4-0.3-0.4-0.5l-6.7-56.6c0-0.2,0.1-0.5,0.3-0.6l45.5-34.1c0.2-0.1,0.4-0.2,0.7-0.1l52.3,22.5
				C295.9,215.4,296,215.4,296.1,215.5 M301.6,272.2l-6.6-55.8l-51.6-22.2l-44.9,33.6l6.6,55.8l51.6,22.2L301.6,272.2z"/>
			
				<linearGradient id="Path_169_00000003798037897616227960000010447400554395314325_" gradientUnits="userSpaceOnUse" x1="-0.3282" y1="499.6146" x2="0.1575" y2="499.9878" gradientTransform="matrix(198.584 0 0 -225.341 271.2355 112871.9453)">
				<stop  offset="0" style="stop-color:#93278F"/>
				<stop  offset="0" style="stop-color:#952C91"/>
				<stop  offset="1" style="stop-color:#FFFFFF;stop-opacity:0"/>
			</linearGradient>
			<path id="Path_169" style="fill:url(#Path_169_00000003798037897616227960000010447400554395314325_);" d="M301.9,217.7
				c0.1,0.1,0.1,0.2,0.1,0.4l1.9,60.6c0,0.2-0.1,0.5-0.3,0.6l-51.4,31.9c-0.2,0.1-0.4,0.1-0.7,0l-53.3-28.7
				c-0.2-0.1-0.3-0.3-0.3-0.6l-1.9-60.6c0-0.2,0.1-0.5,0.3-0.6l51.4-31.9c0.2-0.1,0.4-0.1,0.7,0l53.3,28.7
				C301.8,217.6,301.9,217.6,301.9,217.7 M302.6,278.3l-1.9-59.8l-52.6-28.3l-50.8,31.5l1.9,59.8l52.6,28.3L302.6,278.3z"/>
			
				<linearGradient id="Path_170_00000127760200483728227870000000810288838109767856_" gradientUnits="userSpaceOnUse" x1="-0.2848" y1="499.598" x2="0.2009" y2="499.9712" gradientTransform="matrix(213.8748 0 0 -239.3081 263.589 119848.5469)">
				<stop  offset="0" style="stop-color:#93278F"/>
				<stop  offset="0" style="stop-color:#952C91"/>
				<stop  offset="1" style="stop-color:#FFFFFF;stop-opacity:0"/>
			</linearGradient>
			<path id="Path_170" style="fill:url(#Path_170_00000127760200483728227870000000810288838109767856_);" d="M308,220.6
				c0.1,0.1,0.1,0.3,0.1,0.4l-3.6,64.4c0,0.2-0.1,0.4-0.4,0.5l-57.4,29c-0.2,0.1-0.5,0.1-0.7,0l-53.8-35.3c-0.2-0.1-0.3-0.4-0.3-0.6
				l3.6-64.4c0-0.2,0.1-0.4,0.4-0.5l57.4-29c0.2-0.1,0.5-0.1,0.7,0l53.8,35.3C307.9,220.5,307.9,220.5,308,220.6 M303.2,284.9
				l3.6-63.6l-53.2-34.9l-56.8,28.7l-3.6,63.6l53.2,34.9L303.2,284.9z"/>
			
				<linearGradient id="Path_171_00000144334610552005481540000007207162107262935184_" gradientUnits="userSpaceOnUse" x1="-0.2311" y1="499.5842" x2="0.2547" y2="499.9575" gradientTransform="matrix(236.4323 0 0 -252.2344 252.3064 126305.2031)">
				<stop  offset="0" style="stop-color:#93278F"/>
				<stop  offset="0" style="stop-color:#952C91"/>
				<stop  offset="1" style="stop-color:#FFFFFF;stop-opacity:0"/>
			</linearGradient>
			<path id="Path_171" style="fill:url(#Path_171_00000144334610552005481540000007207162107262935184_);" d="M314.1,224.2
				c0.1,0.1,0.1,0.3,0.1,0.5l-9.8,67.9c0,0.2-0.2,0.4-0.4,0.5l-63.6,25.5c-0.2,0.1-0.5,0.1-0.6-0.1L186,276
				c-0.2-0.1-0.3-0.4-0.2-0.6l9.8-67.9c0-0.2,0.2-0.4,0.4-0.5l63.6-25.5c0.2-0.1,0.5-0.1,0.6,0.1L314,224
				C314,224.1,314.1,224.1,314.1,224.2 M303.2,291.9l9.7-67.1l-53.2-41.9l-62.9,25.2l-9.7,67.1l53.2,41.9L303.2,291.9z"/>
			
				<linearGradient id="Path_172_00000057833938887434490750000005261783319093435064_" gradientUnits="userSpaceOnUse" x1="-0.1865" y1="499.5731" x2="0.2993" y2="499.9463" gradientTransform="matrix(259.1118 0 0 -263.8213 240.968 132092.8594)">
				<stop  offset="0" style="stop-color:#93278F"/>
				<stop  offset="0" style="stop-color:#952C91"/>
				<stop  offset="1" style="stop-color:#FFFFFF;stop-opacity:0"/>
			</linearGradient>
			<path id="Path_172" style="fill:url(#Path_172_00000057833938887434490750000005261783319093435064_);" d="M320.3,228.5
				c0.1,0.2,0.2,0.4,0.1,0.5l-16.7,71c-0.1,0.2-0.2,0.4-0.4,0.5l-69.7,21.1c-0.2,0.1-0.5,0-0.6-0.1l-53-49.9
				c-0.2-0.2-0.2-0.4-0.2-0.6l16.7-71c0.1-0.2,0.2-0.4,0.4-0.5l69.7-21.1c0.2-0.1,0.5,0,0.6,0.1L320.3,228.5
				C320.2,228.5,320.2,228.5,320.3,228.5 M302.5,299.4l16.5-70.3l-52.5-49.4l-69,20.9L181,270.9l52.5,49.4L302.5,299.4z"/>
			
				<linearGradient id="Path_173_00000097463386420131237610000000107251582979961243_" gradientUnits="userSpaceOnUse" x1="-0.1492" y1="499.5642" x2="0.3365" y2="499.9375" gradientTransform="matrix(281.6506 0 0 -273.7548 229.6996 137054.6719)">
				<stop  offset="0" style="stop-color:#93278F"/>
				<stop  offset="0" style="stop-color:#952C91"/>
				<stop  offset="1" style="stop-color:#FFFFFF;stop-opacity:0"/>
			</linearGradient>
			<path id="Path_173" style="fill:url(#Path_173_00000097463386420131237610000000107251582979961243_);" d="M326.4,233.7
				c0.1,0.2,0.2,0.4,0.1,0.6L302.2,308c-0.1,0.2-0.3,0.4-0.5,0.4l-75.9,15.9c-0.2,0-0.5,0-0.6-0.2l-51.6-57.8
				c-0.2-0.2-0.2-0.4-0.1-0.6l24.3-73.7c0.1-0.2,0.3-0.4,0.5-0.4l75.9-15.9c0.2,0,0.5,0,0.6,0.2L326.4,233.7
				C326.4,233.7,326.4,233.7,326.4,233.7 M301.1,307.3l24-73L274,177l-75.1,15.7l-24,73L226,323L301.1,307.3z"/>
			
				<linearGradient id="Path_174_00000052799355506220175820000001706133606590635657_" gradientUnits="userSpaceOnUse" x1="-0.1181" y1="499.5576" x2="0.3677" y2="499.9309" gradientTransform="matrix(303.7667 0 0 -281.6924 218.6403 141019.4844)">
				<stop  offset="0" style="stop-color:#93278F"/>
				<stop  offset="0" style="stop-color:#952C91"/>
				<stop  offset="1" style="stop-color:#FFFFFF;stop-opacity:0"/>
			</linearGradient>
			<path id="Path_174" style="fill:url(#Path_174_00000052799355506220175820000001706133606590635657_);" d="M283.1,173.7
				L283.1,173.7l49.3,66.1c0.1,0.2,0.2,0.4,0.1,0.7l-32.6,75.9c-0.1,0.2-0.3,0.4-0.5,0.4l-81.9,9.8c-0.2,0-0.5-0.1-0.6-0.3l0,0
				l-49.3-66.1c-0.1-0.2-0.2-0.4-0.1-0.7l32.6-75.9c0.1-0.2,0.3-0.4,0.5-0.4l81.9-9.8C282.7,173.5,282.9,173.5,283.1,173.7
				 M331.1,240.3l-48.9-65.5l-81.1,9.7l-32.3,75.2l48.9,65.5l81.1-9.7L331.1,240.3z"/>
			
				<linearGradient id="Path_175_00000070092499130493212390000018321036475460211130_" gradientUnits="userSpaceOnUse" x1="-9.201203e-02" y1="499.5532" x2="0.3937" y2="499.9265" gradientTransform="matrix(325.1211 0 0 -287.2708 207.9624 143805.9062)">
				<stop  offset="0" style="stop-color:#93278F"/>
				<stop  offset="0" style="stop-color:#952C91"/>
				<stop  offset="1" style="stop-color:#FFFFFF;stop-opacity:0"/>
			</linearGradient>
			<path id="Path_175" style="fill:url(#Path_175_00000070092499130493212390000018321036475460211130_);" d="M292.1,172.2
				C292.1,172.2,292.1,172.3,292.1,172.2l46.2,74.6c0.1,0.2,0.1,0.4,0,0.7l-41.5,77.4c-0.1,0.2-0.3,0.3-0.6,0.3l-87.7,2.8
				c-0.2,0-0.5-0.1-0.6-0.3l-46.1-74.6c-0.1-0.2-0.1-0.4,0-0.7l41.5-77.4c0.1-0.2,0.3-0.3,0.6-0.3l87.7-2.8
				C291.7,172,291.9,172.1,292.1,172.2 M336.9,247.2l-45.7-74l-86.9,2.8l-41.2,76.7l45.7,74l86.9-2.8L336.9,247.2z"/>
			
				<linearGradient id="Path_176_00000127014034575442800630000005006881749971123116_" gradientUnits="userSpaceOnUse" x1="-7.028309e-02" y1="499.5374" x2="0.4154" y2="499.9106" gradientTransform="matrix(345.366 0 0 -309.1848 197.8414 154751.9375)">
				<stop  offset="0" style="stop-color:#93278F"/>
				<stop  offset="0" style="stop-color:#952C91"/>
				<stop  offset="1" style="stop-color:#FFFFFF;stop-opacity:0"/>
			</linearGradient>
			<path id="Path_176" style="fill:url(#Path_176_00000127014034575442800630000005006881749971123116_);" d="M301.7,171.4
				C301.7,171.5,301.8,171.5,301.7,171.4l42,83.4c0.1,0.2,0.1,0.5,0,0.7l-51.2,78.2c-0.1,0.2-0.3,0.3-0.6,0.3l-93.2-5.2
				c-0.2,0-0.4-0.1-0.5-0.4l-42-83.3c-0.1-0.2-0.1-0.5,0-0.7l51.2-78.2c0.1-0.2,0.4-0.3,0.6-0.3l93.2,5.2
				C301.4,171.2,301.6,171.3,301.7,171.4 M342.4,255.1l-41.6-82.7l-92.4-5.1l-50.8,77.5l41.6,82.7l92.4,5.1L342.4,255.1z"/>
			
				<linearGradient id="Path_177_00000106868003387249245210000012304789897857791637_" gradientUnits="userSpaceOnUse" x1="-5.231884e-02" y1="499.5175" x2="0.4334" y2="499.8908" gradientTransform="matrix(364.1049 0 0 -341.847 188.4686 171066.7344)">
				<stop  offset="0" style="stop-color:#93278F"/>
				<stop  offset="0" style="stop-color:#952C91"/>
				<stop  offset="1" style="stop-color:#FFFFFF;stop-opacity:0"/>
			</linearGradient>
			<path id="Path_177" style="fill:url(#Path_177_00000106868003387249245210000012304789897857791637_);" d="M312,171.5
				c0,0,0.1,0.1,0.1,0.1l36.8,92.2c0.1,0.2,0.1,0.5-0.1,0.6l-61.5,78.1c-0.1,0.2-0.4,0.3-0.6,0.2l-98.3-14.1c-0.2,0-0.4-0.2-0.5-0.4
				l-36.8-92.2c-0.1-0.2-0.1-0.5,0.1-0.6l61.5-78.1c0.1-0.2,0.4-0.3,0.6-0.2l98.3,14.1C311.8,171.3,311.9,171.4,312,171.5
				 M347.5,264L311,172.5l-97.5-14l-61,77.5l36.5,91.5l97.5,14L347.5,264z"/>
			
				<linearGradient id="Path_178_00000067230450819044671990000009631099285459226752_" gradientUnits="userSpaceOnUse" x1="-3.772368e-02" y1="499.5011" x2="0.448" y2="499.8744" gradientTransform="matrix(380.9033 0 0 -374.6844 180.0716 187468.9844)">
				<stop  offset="0" style="stop-color:#93278F"/>
				<stop  offset="0" style="stop-color:#952C91"/>
				<stop  offset="1" style="stop-color:#FFFFFF;stop-opacity:0"/>
			</linearGradient>
			<path id="Path_178" style="fill:url(#Path_178_00000067230450819044671990000009631099285459226752_);" d="M322.9,172.6
				c0,0.1,0.1,0.1,0.1,0.2l30.4,101.1c0.1,0.2,0,0.5-0.2,0.6l-72.4,77.1c-0.2,0.2-0.4,0.2-0.6,0.2l-102.8-24.1
				c-0.2-0.1-0.4-0.2-0.5-0.4l-30.4-101.1c-0.1-0.2,0-0.5,0.1-0.6l72.4-77.1c0.2-0.2,0.4-0.2,0.6-0.2l102.8,24.1
				C322.7,172.3,322.9,172.4,322.9,172.6 M352.1,273.9l-30.2-100.4l-102.1-23.9l-71.9,76.5l30.2,100.4l102.1,23.9L352.1,273.9z"/>
			
				<linearGradient id="Path_179_00000062886414995843774750000015206174046002260617_" gradientUnits="userSpaceOnUse" x1="-2.619389e-02" y1="499.4874" x2="0.4595" y2="499.8607" gradientTransform="matrix(395.3105 0 0 -407.321 172.8694 203771)">
				<stop  offset="0" style="stop-color:#93278F"/>
				<stop  offset="0" style="stop-color:#952C91"/>
				<stop  offset="1" style="stop-color:#FFFFFF;stop-opacity:0"/>
			</linearGradient>
			<path id="Path_179" style="fill:url(#Path_179_00000062886414995843774750000015206174046002260617_);" d="M334.4,174.7
				c0.1,0.1,0.1,0.2,0.1,0.3l22.8,110c0,0.2,0,0.5-0.2,0.6l-83.9,74.9c-0.2,0.2-0.4,0.2-0.6,0.1l-106.7-35.1
				c-0.2-0.1-0.4-0.3-0.4-0.5l-22.8-110c0-0.2,0-0.5,0.2-0.6l83.9-74.9c0.2-0.2,0.4-0.2,0.6-0.1l106.7,35.1
				C334.2,174.5,334.3,174.6,334.4,174.7 M356,284.8l-22.7-109.3l-106-34.8L144,215.2l22.7,109.3l106,34.8L356,284.8z"/>
			
				<linearGradient id="Path_180_00000101787374581182841870000010183500915016079033_" gradientUnits="userSpaceOnUse" x1="-1.755591e-02" y1="499.4759" x2="0.4682" y2="499.8492" gradientTransform="matrix(406.8356 0 0 -439.3215 167.1053 219755.2188)">
				<stop  offset="0" style="stop-color:#93278F"/>
				<stop  offset="0" style="stop-color:#952C91"/>
				<stop  offset="1" style="stop-color:#FFFFFF;stop-opacity:0"/>
			</linearGradient>
			<path id="Path_180" style="fill:url(#Path_180_00000101787374581182841870000010183500915016079033_);" d="M346.4,178
				c0.1,0.1,0.1,0.2,0.1,0.3l14,118.7c0,0.2-0.1,0.5-0.3,0.6l-95.9,71.7c-0.2,0.1-0.4,0.2-0.7,0.1l-109.9-47
				c-0.2-0.1-0.4-0.3-0.4-0.5l-14-118.7c0-0.2,0.1-0.5,0.3-0.6l95.9-71.6c0.2-0.1,0.4-0.2,0.7-0.1l109.9,47
				C346.2,177.8,346.3,177.9,346.4,178 M359.2,296.7l-13.9-117.9l-109.2-46.7l-95.3,71.2l13.9,117.9l109.2,46.7L359.2,296.7z"/>
			
				<linearGradient id="Path_181_00000103976450056577448170000005313948555276667272_" gradientUnits="userSpaceOnUse" x1="-1.175499e-02" y1="499.4663" x2="0.474" y2="499.8396" gradientTransform="matrix(414.9601 0 0 -470.2278 163.0434 235192.9375)">
				<stop  offset="0" style="stop-color:#93278F"/>
				<stop  offset="0" style="stop-color:#952C91"/>
				<stop  offset="1" style="stop-color:#FFFFFF;stop-opacity:0"/>
			</linearGradient>
			<path id="Path_181" style="fill:url(#Path_181_00000103976450056577448170000005313948555276667272_);" d="M358.8,182.6
				c0.1,0.1,0.1,0.2,0.1,0.4l3.8,127.1c0,0.2-0.1,0.5-0.3,0.6l-108.2,67c-0.2,0.1-0.4,0.1-0.7,0l-112.1-60c-0.2-0.1-0.3-0.3-0.3-0.6
				L137.3,190c0-0.2,0.1-0.5,0.3-0.6l108.2-67c0.2-0.1,0.4-0.1,0.7,0l112.1,60C358.6,182.4,358.7,182.5,358.8,182.6 M361.4,309.7
				l-3.8-126.3l-111.4-59.7l-107.6,66.6l3.8,126.3l111.4,59.7L361.4,309.7z"/>
			
				<linearGradient id="Path_182_00000116951474102645672650000002425300739971993779_" gradientUnits="userSpaceOnUse" x1="9.374920e-03" y1="499.4583" x2="0.4951" y2="499.8316" gradientTransform="matrix(447.5166 0 0 -499.4969 146.7652 249812.8125)">
				<stop  offset="0" style="stop-color:#93278F"/>
				<stop  offset="0" style="stop-color:#952C91"/>
				<stop  offset="1" style="stop-color:#FFFFFF;stop-opacity:0"/>
			</linearGradient>
			<path id="Path_182" style="fill:url(#Path_182_00000116951474102645672650000002425300739971993779_);" d="M371.4,188.6
				c0.1,0.1,0.1,0.3,0.1,0.4l-7.7,135c0,0.2-0.1,0.4-0.4,0.5l-120.9,61c-0.2,0.1-0.5,0.1-0.7,0l-113.2-74c-0.2-0.1-0.3-0.4-0.3-0.6
				l7.7-135c0-0.2,0.1-0.4,0.4-0.5l120.9-61c0.2-0.1,0.5-0.1,0.7,0l113.2,74C371.3,188.5,371.4,188.5,371.4,188.6 M362.6,323.6
				l7.7-134.3l-112.6-73.6l-120.2,60.7l-7.7,134.3l112.6,73.6L362.6,323.6z"/>
			
				<linearGradient id="Path_183_00000091736964053064806440000016762947386329026746_" gradientUnits="userSpaceOnUse" x1="3.518336e-02" y1="499.4517" x2="0.5209" y2="499.825" gradientTransform="matrix(494.9501 0 0 -526.585 123.0499 263343.3438)">
				<stop  offset="0" style="stop-color:#93278F"/>
				<stop  offset="0" style="stop-color:#952C91"/>
				<stop  offset="1" style="stop-color:#FFFFFF;stop-opacity:0"/>
			</linearGradient>
			<path id="Path_183" style="fill:url(#Path_183_00000091736964053064806440000016762947386329026746_);" d="M384.3,196.2
				c0.1,0.1,0.1,0.3,0.1,0.5L363.8,339c0,0.2-0.2,0.4-0.4,0.5L229.6,393c-0.2,0.1-0.5,0.1-0.6-0.1L115.8,304
				c-0.2-0.1-0.3-0.4-0.2-0.6L136.2,161c0-0.2,0.2-0.4,0.4-0.5L270.5,107c0.2-0.1,0.5-0.1,0.6,0.1L384.2,196
				C384.3,196.1,384.3,196.1,384.3,196.2 M362.5,338.5l20.6-141.6l-112.5-88.5l-133.1,53.2l-20.6,141.6l112.5,88.5L362.5,338.5z"/>
			
				<linearGradient id="Path_184_00000034772970897446358890000012575640274112340151_" gradientUnits="userSpaceOnUse" x1="5.658135e-02" y1="499.4464" x2="0.5423" y2="499.8196" gradientTransform="matrix(542.6357 0 0 -550.8552 99.2075 275466.3125)">
				<stop  offset="0" style="stop-color:#93278F"/>
				<stop  offset="0" style="stop-color:#952C91"/>
				<stop  offset="1" style="stop-color:#FFFFFF;stop-opacity:0"/>
			</linearGradient>
			<path id="Path_184" style="fill:url(#Path_184_00000034772970897446358890000012575640274112340151_);" d="M397.3,205.4
				c0.1,0.2,0.2,0.4,0.1,0.5l-35.1,149c-0.1,0.2-0.2,0.4-0.4,0.5l-146.8,44.2c-0.2,0.1-0.5,0-0.6-0.1L102.8,294.7
				c-0.2-0.2-0.2-0.4-0.2-0.6l35.1-149c0.1-0.2,0.2-0.4,0.4-0.5l146.8-44.2c0.2-0.1,0.5,0,0.6,0.1L397.3,205.4
				C397.2,205.3,397.3,205.3,397.3,205.4 M361.1,354.2L396,206L285,101.7l-146,44L104,294L215,398.3L361.1,354.2z"/>
			
				<linearGradient id="Path_185_00000178204529113653540360000010845264404694045589_" gradientUnits="userSpaceOnUse" x1="7.442320e-02" y1="499.4421" x2="0.5601" y2="499.8154" gradientTransform="matrix(590.0345 0 0 -571.6508 75.5076 285853.6875)">
				<stop  offset="0" style="stop-color:#93278F"/>
				<stop  offset="0" style="stop-color:#952C91"/>
				<stop  offset="1" style="stop-color:#FFFFFF;stop-opacity:0"/>
			</linearGradient>
			<path id="Path_185" style="fill:url(#Path_185_00000178204529113653540360000010845264404694045589_);" d="M410.2,216.3
				c0.1,0.2,0.2,0.4,0.1,0.6l-51,154.6c-0.1,0.2-0.3,0.4-0.5,0.4l-159.6,33.3c-0.2,0-0.5,0-0.6-0.2L89.9,283.7
				c-0.2-0.2-0.2-0.4-0.1-0.6l51-154.6c0.1-0.2,0.3-0.4,0.5-0.4l159.6-33.3c0.2,0,0.5,0,0.6,0.2L410.2,216.3
				C410.1,216.3,410.1,216.3,410.2,216.3 M358.1,370.8l50.8-153.9L300.8,96.1l-158.9,33.1L91.1,283.1l108.1,120.8L358.1,370.8z"/>
			
				<linearGradient id="Path_186_00000091007805682705417590000014762822960878375820_" gradientUnits="userSpaceOnUse" x1="8.934488e-02" y1="499.439" x2="0.5751" y2="499.8122" gradientTransform="matrix(636.524 0 0 -588.2611 52.262 294150.5625)">
				<stop  offset="0" style="stop-color:#93278F"/>
				<stop  offset="0" style="stop-color:#952C91"/>
				<stop  offset="1" style="stop-color:#FFFFFF;stop-opacity:0"/>
			</linearGradient>
			<path id="Path_186" style="fill:url(#Path_186_00000091007805682705417590000014762822960878375820_);" d="M422.8,229.1
				c0.1,0.2,0.2,0.4,0.1,0.6l-68.4,159.2c-0.1,0.2-0.3,0.4-0.5,0.4l-172.3,20.5c-0.2,0-0.5-0.1-0.6-0.3L77.2,270.9l0,0
				c-0.1-0.2-0.2-0.4-0.1-0.7l68.4-159.2c0.1-0.2,0.3-0.4,0.5-0.4l172.3-20.5c0.2,0,0.5,0.1,0.6,0.3L422.8,229.1L422.8,229.1z
				 M353.4,388.1l68.1-158.5L318.1,91.5l-171.5,20.4L78.5,270.4l103.4,138.1L353.4,388.1z"/>
			
				<linearGradient id="Path_187_00000026126989334515220180000016468496856334165916_" gradientUnits="userSpaceOnUse" x1="0.1018" y1="499.4369" x2="0.5875" y2="499.8101" gradientTransform="matrix(681.4167 0 0 -599.9241 29.8141 299976.2188)">
				<stop  offset="0" style="stop-color:#93278F"/>
				<stop  offset="0" style="stop-color:#952C91"/>
				<stop  offset="1" style="stop-color:#FFFFFF;stop-opacity:0"/>
			</linearGradient>
			<path id="Path_187" style="fill:url(#Path_187_00000026126989334515220180000016468496856334165916_);" d="M337.8,87.3
				C337.8,87.3,337.8,87.3,337.8,87.3L435,243.9c0.1,0.2,0.1,0.4,0,0.7l-87.3,162.3c-0.1,0.2-0.3,0.3-0.6,0.3L162.7,413
				c-0.2,0-0.5-0.1-0.6-0.3L65,256.1c-0.1-0.2-0.1-0.4,0-0.7l87.3-162.3c0.1-0.2,0.3-0.3,0.6-0.3L337.3,87
				C337.5,87,337.7,87.1,337.8,87.3 M433.7,244.3l-96.8-156L153.2,94L66.3,255.7l96.8,156l183.7-5.7L433.7,244.3z"/>
			
				<linearGradient id="Path_188_00000173137630869669265520000002459057951260915897_" gradientUnits="userSpaceOnUse" x1="0.1122" y1="499.4291" x2="0.5979" y2="499.8024" gradientTransform="matrix(723.9579 0 0 -646.4999 8.5436 323240.8438)">
				<stop  offset="0" style="stop-color:#93278F"/>
				<stop  offset="0" style="stop-color:#952C91"/>
				<stop  offset="1" style="stop-color:#FFFFFF;stop-opacity:0"/>
			</linearGradient>
			<path id="Path_188" style="fill:url(#Path_188_00000173137630869669265520000002459057951260915897_);" d="M358.1,85.7
				C358.1,85.7,358.1,85.7,358.1,85.7l88.5,175.1c0.1,0.2,0.1,0.5,0,0.7L339,425.3c-0.1,0.2-0.4,0.3-0.6,0.3l-196-11
				c-0.2,0-0.4-0.1-0.5-0.4l-88.5-175c-0.1-0.2-0.1-0.5,0-0.7L161,74.7c0.1-0.2,0.4-0.3,0.6-0.3l196,11
				C357.8,85.4,358,85.5,358.1,85.7 M445.3,261L357.1,86.7l-195.3-11L54.7,239l88.1,174.3l195.3,11L445.3,261z"/>
			
				<linearGradient id="Path_189_00000111891298686873478710000016964030672726795395_" gradientUnits="userSpaceOnUse" x1="0.1208" y1="499.4196" x2="0.6065" y2="499.7929" gradientTransform="matrix(763.3283 0 0 -715.1967 -11.1394 357554.9062)">
				<stop  offset="0" style="stop-color:#93278F"/>
				<stop  offset="0" style="stop-color:#952C91"/>
				<stop  offset="1" style="stop-color:#FFFFFF;stop-opacity:0"/>
			</linearGradient>
			<path id="Path_189" style="fill:url(#Path_189_00000111891298686873478710000016964030672726795395_);" d="M379.7,85.9
				c0,0,0.1,0.1,0.1,0.1l77.5,193.6c0.1,0.2,0.1,0.5-0.1,0.6L328,444c-0.1,0.2-0.4,0.3-0.6,0.2l-206.7-29.9c-0.2,0-0.4-0.2-0.5-0.4
				L42.7,220.4c-0.1-0.2-0.1-0.5,0.1-0.6L172,56c0.1-0.2,0.4-0.3,0.6-0.2l206.7,29.9C379.4,85.6,379.6,85.7,379.7,85.9 M456,279.8
				L378.7,86.8l-206-29.8L44,220.2l77.2,192.9l206,29.8L456,279.8z"/>
			
				<linearGradient id="Path_190_00000057106359488115572580000014548401253158885533_" gradientUnits="userSpaceOnUse" x1="0.1278" y1="499.4117" x2="0.6135" y2="499.785" gradientTransform="matrix(798.621 0 0 -784.2704 -28.7872 392057.1875)">
				<stop  offset="0" style="stop-color:#93278F"/>
				<stop  offset="0" style="stop-color:#952C91"/>
				<stop  offset="1" style="stop-color:#FFFFFF;stop-opacity:0"/>
			</linearGradient>
			<path id="Path_190" style="fill:url(#Path_190_00000057106359488115572580000014548401253158885533_);" d="M402.6,88
				c0,0.1,0.1,0.1,0.1,0.2l64.2,212.4c0.1,0.2,0,0.5-0.1,0.6L314.7,462.8c-0.2,0.2-0.4,0.2-0.6,0.2L97.8,412.2
				c-0.2-0.1-0.4-0.2-0.5-0.4L33.1,199.4c-0.1-0.2,0-0.5,0.2-0.6L185.3,37.2c0.2-0.2,0.4-0.2,0.6-0.2l216.3,50.8
				C402.4,87.8,402.5,87.9,402.6,88 M465.6,300.7L401.6,89L186,38.3l-151.6,161l64,211.7L314,461.7L465.6,300.7z"/>
			
				<linearGradient id="Path_191_00000003826634768992674010000010791810228727450514_" gradientUnits="userSpaceOnUse" x1="0.1333" y1="499.4051" x2="0.619" y2="499.7784" gradientTransform="matrix(828.8745 0 0 -852.9241 -43.9129 426349.7188)">
				<stop  offset="0" style="stop-color:#93278F"/>
				<stop  offset="0" style="stop-color:#952C91"/>
				<stop  offset="1" style="stop-color:#FFFFFF;stop-opacity:0"/>
			</linearGradient>
			<path id="Path_191" style="fill:url(#Path_191_00000003826634768992674010000010791810228727450514_);" d="M426.7,92.5
				c0.1,0.1,0.1,0.2,0.1,0.3l48.4,231.1c0,0.2,0,0.5-0.2,0.6L298.8,481.5c-0.2,0.2-0.4,0.2-0.6,0.1L73.6,407.7
				c-0.2-0.1-0.4-0.3-0.4-0.5l-48.4-231c0-0.2,0-0.5,0.2-0.6L201.2,18.5c0.2-0.2,0.4-0.2,0.6-0.1l224.5,73.9
				C426.5,92.3,426.6,92.4,426.7,92.5 M473.8,323.7L425.6,93.4L201.8,19.7L26.2,176.3l48.2,230.3l223.8,73.7L473.8,323.7z"/>
			
				<linearGradient id="Path_192_00000015342675904442761590000001522708839037591459_" gradientUnits="userSpaceOnUse" x1="0.1374" y1="499.3996" x2="0.6231" y2="499.7729" gradientTransform="matrix(853.0472 0 0 -920.2756 -56.0005 459991.8125)">
				<stop  offset="0" style="stop-color:#93278F"/>
				<stop  offset="0" style="stop-color:#952C91"/>
				<stop  offset="1" style="stop-color:#FFFFFF;stop-opacity:0"/>
			</linearGradient>
			<path id="Path_192" style="fill:url(#Path_192_00000015342675904442761590000001522708839037591459_);" d="M451.8,99.4
				c0.1,0.1,0.1,0.2,0.1,0.3l29.8,249.3c0,0.2-0.1,0.5-0.3,0.6L280.2,499.9c-0.2,0.1-0.4,0.2-0.6,0.1L48.5,400.8
				c-0.2-0.1-0.4-0.3-0.4-0.5L18.3,150.9c0-0.2,0.1-0.5,0.3-0.6L219.8,0.1c0.2-0.1,0.4-0.2,0.6-0.1l231.1,99.2
				C451.6,99.3,451.7,99.3,451.8,99.4 M480.4,348.9l-29.7-248.6L220.3,1.4L19.6,151.1l29.7,248.6l230.4,98.9L480.4,348.9z"/>
		</g>
	</g>
</g>
</svg>
