<?xml version="1.0" encoding="utf-8"?>
<!-- Generator: Adobe Illustrator 26.5.0, SVG Export Plug-In . SVG Version: 6.00 Build 0)  -->
<svg version="1.1" id="Layer_1" xmlns="http://www.w3.org/2000/svg" xmlns:xlink="http://www.w3.org/1999/xlink" x="0px" y="0px"
	 viewBox="0 0 50 26" style="enable-background:new 0 0 50 26;" xml:space="preserve">
<style type="text/css">
	.st0{fill:#93278F;}
</style>
<g>
	<path class="st0" d="M25,0.1c-7.1,0-12.9,5.8-12.9,12.9v12.9H25c7.1,0,12.9-5.8,12.9-12.9V0.1H25z M35.3,13
		c0,5.7-4.6,10.3-10.3,10.3H14.7V13c0-5.7,4.6-10.3,10.3-10.3h10.3V13z"/>
	<path class="st0" d="M32.1,15.1L32.1,15.1c0,0.4-0.3,0.7-0.7,0.7h-2.6c-0.6,0-1-0.5-1-1v-3.3h-1.3v0h0v3.3c0,0.6-0.5,1-1,1h-2.7
		c-0.4,0-0.8-0.3-1-0.7l-1-2.9l-1.1,3.1c-0.1,0.3-0.4,0.5-0.7,0.5h0c-0.6,0-0.9-0.6-0.7-1.1l1.6-4c0.2-0.4,0.5-0.6,1-0.6h0.1
		c0.4,0,0.8,0.3,1,0.6l1.2,3.1c0.2,0.4,0.5,0.6,1,0.6h1v-3h-1c-0.4,0-0.7-0.3-0.7-0.7v0c0-0.4,0.3-0.7,0.7-0.7h4.5c0.6,0,1,0.5,1,1
		v3.3h2.1C31.7,14.4,32.1,14.8,32.1,15.1z"/>
</g>
</svg>
