<?xml version="1.0" encoding="utf-8"?>
<!-- Generator: Adobe Illustrator 27.3.1, SVG Export Plug-In . SVG Version: 6.00 Build 0)  -->
<svg version="1.1" id="Layer_1" xmlns="http://www.w3.org/2000/svg" xmlns:xlink="http://www.w3.org/1999/xlink" x="0px" y="0px"
	 viewBox="0 0 269 56" style="enable-background:new 0 0 269 56;" xml:space="preserve">
<style type="text/css">
	.st0{fill:#93278F;}
</style>
<g>
	<g>
		<path class="st0" d="M68.3,15.1h2.3l4.9,11.5h-2.6l-1-2.6h-4.8l-1,2.6h-2.6L68.3,15.1z M71,21.8l-1.5-3.7l-1.5,3.7H71z"/>
		<path class="st0" d="M75.5,25.4l1.1-1.6c0.9,0.7,1.9,1,2.8,1c0.7,0,1-0.3,1-0.7v0c0-0.5-0.8-0.7-1.8-1c-1.2-0.4-2.6-0.9-2.6-2.6v0
			c0-1.8,1.4-2.8,3.2-2.8c1.1,0,2.3,0.4,3.3,1l-0.9,1.7c-0.9-0.5-1.7-0.8-2.4-0.8c-0.6,0-0.9,0.3-0.9,0.6v0c0,0.5,0.8,0.7,1.8,1
			c1.2,0.4,2.6,1,2.6,2.6v0c0,1.9-1.5,2.8-3.3,2.8C78.1,26.7,76.7,26.3,75.5,25.4z"/>
		<path class="st0" d="M82.7,25.4l1.1-1.6c0.9,0.7,1.9,1,2.8,1c0.7,0,1-0.3,1-0.7v0c0-0.5-0.8-0.7-1.8-1c-1.2-0.4-2.6-0.9-2.6-2.6v0
			c0-1.8,1.4-2.8,3.2-2.8c1.1,0,2.3,0.4,3.3,1l-0.9,1.7c-0.9-0.5-1.7-0.8-2.4-0.8c-0.6,0-0.9,0.3-0.9,0.6v0c0,0.5,0.8,0.7,1.8,1
			c1.2,0.4,2.6,1,2.6,2.6v0c0,1.9-1.5,2.8-3.3,2.8C85.3,26.7,83.9,26.3,82.7,25.4z"/>
		<path class="st0" d="M90.4,22.3L90.4,22.3c0-2.5,1.8-4.6,4.3-4.6c2.9,0,4.3,2.3,4.3,4.7c0,0.2,0,0.4,0,0.7h-6.1
			c0.2,1.1,1,1.7,2.1,1.7c0.8,0,1.4-0.3,2.1-0.9l1.4,1.3c-0.8,1-2,1.6-3.6,1.6C92.3,26.8,90.4,24.9,90.4,22.3z M96.5,21.5
			c-0.1-1.1-0.8-1.9-1.8-1.9c-1,0-1.7,0.7-1.9,1.9H96.5z"/>
		<path class="st0" d="M100.4,24.1V20h-1v-2.1h1v-2.2h2.5v2.2h2.1V20h-2.1v3.7c0,0.6,0.2,0.8,0.8,0.8c0.5,0,0.9-0.1,1.2-0.3v2
			c-0.5,0.3-1.1,0.5-2,0.5C101.4,26.7,100.4,26.1,100.4,24.1z"/>
		<path class="st0" d="M105.2,25.4l1.1-1.6c0.9,0.7,1.9,1,2.8,1c0.7,0,1-0.3,1-0.7v0c0-0.5-0.8-0.7-1.8-1c-1.2-0.4-2.6-0.9-2.6-2.6
			v0c0-1.8,1.4-2.8,3.2-2.8c1.1,0,2.3,0.4,3.3,1l-0.9,1.7c-0.9-0.5-1.7-0.8-2.4-0.8c-0.6,0-0.9,0.3-0.9,0.6v0c0,0.5,0.8,0.7,1.8,1
			c1.2,0.4,2.6,1,2.6,2.6v0c0,1.9-1.5,2.8-3.3,2.8C107.8,26.7,106.4,26.3,105.2,25.4z"/>
		<path class="st0" d="M120.3,17.5h-3.5v-2.3h9.5v2.3h-3.5v9.1h-2.5V17.5z"/>
		<path class="st0" d="M126.1,17.8h2.5v1.8c0.5-1.2,1.3-2,2.8-1.9v2.6h-0.1c-1.6,0-2.7,1-2.7,3.1v3.2h-2.5V17.8z"/>
		<path class="st0" d="M131.2,24.1L131.2,24.1c0-1.9,1.5-2.8,3.5-2.8c0.9,0,1.5,0.1,2.1,0.4v-0.1c0-1-0.6-1.6-1.9-1.6
			c-0.9,0-1.6,0.2-2.4,0.5l-0.6-1.9c1-0.4,1.9-0.7,3.4-0.7c1.4,0,2.3,0.4,3,1c0.7,0.7,0.9,1.6,0.9,2.8v5.1h-2.4v-0.9
			c-0.6,0.7-1.4,1.1-2.6,1.1C132.6,26.7,131.2,25.8,131.2,24.1z M136.9,23.5v-0.4c-0.4-0.2-1-0.3-1.6-0.3c-1.1,0-1.7,0.4-1.7,1.2v0
			c0,0.7,0.6,1.1,1.4,1.1C136.1,25,136.9,24.4,136.9,23.5z"/>
		<path class="st0" d="M140.6,17.8h2.5v1.2c0.6-0.7,1.3-1.4,2.6-1.4c1.9,0,3,1.2,3,3.2v5.7h-2.5v-4.9c0-1.2-0.6-1.8-1.5-1.8
			c-0.9,0-1.5,0.6-1.5,1.8v4.9h-2.5V17.8z"/>
		<path class="st0" d="M149.2,25.4l1.1-1.6c0.9,0.7,1.9,1,2.8,1c0.7,0,1-0.3,1-0.7v0c0-0.5-0.8-0.7-1.8-1c-1.2-0.4-2.6-0.9-2.6-2.6
			v0c0-1.8,1.4-2.8,3.2-2.8c1.1,0,2.3,0.4,3.3,1l-0.9,1.7c-0.9-0.5-1.7-0.8-2.4-0.8c-0.6,0-0.9,0.3-0.9,0.6v0c0,0.5,0.8,0.7,1.8,1
			c1.2,0.4,2.6,1,2.6,2.6v0c0,1.9-1.5,2.8-3.3,2.8C151.7,26.7,150.4,26.3,149.2,25.4z"/>
		<path class="st0" d="M157.7,20h-1v-2h1v-0.6c0-1,0.2-1.7,0.7-2.1c0.5-0.5,1.1-0.7,2-0.7c0.8,0,1.3,0.1,1.8,0.2v2.1
			c-0.4-0.1-0.7-0.2-1.1-0.2c-0.6,0-0.9,0.3-0.9,0.9v0.3h2v2h-2v6.6h-2.5V20z"/>
		<path class="st0" d="M162.1,22.3L162.1,22.3c0-2.5,2-4.6,4.7-4.6c2.7,0,4.7,2,4.7,4.5v0c0,2.5-2,4.5-4.7,4.5
			C164.1,26.8,162.1,24.8,162.1,22.3z M169.1,22.3L169.1,22.3c0-1.3-0.9-2.4-2.3-2.4c-1.4,0-2.3,1.1-2.3,2.4v0
			c0,1.3,0.9,2.4,2.3,2.4C168.3,24.6,169.1,23.5,169.1,22.3z"/>
		<path class="st0" d="M172.5,17.8h2.5v1.8c0.5-1.2,1.3-2,2.8-1.9v2.6h-0.1c-1.6,0-2.7,1-2.7,3.1v3.2h-2.5V17.8z"/>
		<path class="st0" d="M178.5,17.8h2.5v1.2c0.6-0.7,1.3-1.4,2.6-1.4c1.1,0,2,0.5,2.5,1.4c0.8-0.9,1.7-1.4,2.9-1.4c1.8,0,3,1.1,3,3.2
			v5.7h-2.5v-4.9c0-1.2-0.5-1.8-1.5-1.8c-0.9,0-1.5,0.6-1.5,1.8v4.9H184v-4.9c0-1.2-0.5-1.8-1.5-1.8c-0.9,0-1.5,0.6-1.5,1.8v4.9
			h-2.5V17.8z"/>
		<path class="st0" d="M70.8,41.8c-0.9,0.8-2,1.3-3.3,1.3c-2.2,0-3.8-1.3-3.8-3.3v0c0-1.5,0.8-2.5,2.2-3.1c-0.6-0.8-0.8-1.5-0.8-2.3
			v0c0-1.6,1.3-3,3.5-3c1.9,0,3.2,1.3,3.2,2.9v0c0,1.5-1,2.4-2.4,3l1.5,1.5c0.4-0.6,0.7-1.3,1.1-2l1.8,1c-0.4,0.8-0.9,1.6-1.5,2.4
			l1.7,1.7l-1.8,1.3L70.8,41.8z M69.4,40.3l-2.2-2.2c-0.7,0.4-1.1,0.9-1.1,1.5v0c0,0.8,0.7,1.3,1.6,1.3C68.3,41,68.9,40.7,69.4,40.3
			z M69.5,34.3L69.5,34.3c0-0.7-0.4-1.1-1.1-1.1c-0.7,0-1.1,0.5-1.1,1.2v0c0,0.5,0.2,0.9,0.7,1.4C69,35.5,69.5,35,69.5,34.3z"/>
		<path class="st0" d="M79,31.5h2.5v9.1h5.7v2.3H79V31.5z"/>
		<path class="st0" d="M87.5,38.6L87.5,38.6c0-2.5,2-4.6,4.7-4.6c2.7,0,4.7,2,4.7,4.5v0c0,2.5-2,4.5-4.7,4.5
			C89.5,43.1,87.5,41.1,87.5,38.6z M94.5,38.6L94.5,38.6c0-1.3-0.9-2.4-2.3-2.4c-1.4,0-2.3,1.1-2.3,2.4v0c0,1.3,0.9,2.4,2.3,2.4
			C93.6,40.9,94.5,39.8,94.5,38.6z"/>
		<path class="st0" d="M97.4,40.4L97.4,40.4c0-1.9,1.5-2.8,3.5-2.8c0.9,0,1.5,0.1,2.1,0.4v-0.1c0-1-0.6-1.6-1.9-1.6
			c-0.9,0-1.6,0.2-2.4,0.5l-0.6-1.9c1-0.4,1.9-0.7,3.4-0.7c1.4,0,2.3,0.4,3,1c0.7,0.7,0.9,1.6,0.9,2.8v5.1H103v-0.9
			c-0.6,0.7-1.4,1.1-2.6,1.1C98.7,43,97.4,42.1,97.4,40.4z M103.1,39.8v-0.4c-0.4-0.2-1-0.3-1.6-0.3c-1.1,0-1.7,0.4-1.7,1.2v0
			c0,0.7,0.6,1.1,1.4,1.1C102.3,41.3,103.1,40.7,103.1,39.8z"/>
		<path class="st0" d="M106.3,38.5L106.3,38.5c0-3,1.9-4.5,4-4.5c1.3,0,2.1,0.6,2.7,1.3V31h2.5v11.9H113v-1.3
			c-0.6,0.8-1.4,1.4-2.7,1.4C108.3,43,106.3,41.4,106.3,38.5z M113.1,38.5L113.1,38.5c0-1.5-1-2.4-2.1-2.4c-1.2,0-2.1,0.9-2.1,2.4v0
			c0,1.5,1,2.4,2.1,2.4C112.1,40.9,113.1,40,113.1,38.5z"/>
	</g>
	<g>
		<path class="st0" d="M27.2,1.7C12.2,1.7,0,13.8,0,28.8V56h27.2c15,0,27.2-12.2,27.2-27.2V1.7H27.2z M48.9,28.8
			c0,12-9.7,21.7-21.7,21.7H5.4V28.8c0-12,9.7-21.7,21.7-21.7h21.7V28.8z"/>
		<path class="st0" d="M42.1,33.3L42.1,33.3c0,0.8-0.7,1.5-1.5,1.5h-5.5c-1.2,0-2.2-1-2.2-2.2v-6.9h-2.8v0H30v7c0,1.2-1,2.2-2.2,2.2
			h-5.6c-0.9,0-1.7-0.6-2.1-1.4l-2.2-6.2l-2.4,6.5c-0.2,0.7-0.9,1.1-1.6,1.1h0c-1.2,0-2-1.2-1.6-2.3l3.4-8.5c0.3-0.8,1.1-1.4,2-1.4
			H18c0.9,0,1.7,0.5,2,1.4l2.6,6.5c0.3,0.8,1.1,1.4,2,1.4h2.1v-6.3h-2.1c-0.8,0-1.5-0.7-1.5-1.5v0c0-0.8,0.7-1.5,1.5-1.5H34
			c1.2,0,2.2,1,2.2,2.2v6.9h4.4C41.4,31.9,42.1,32.5,42.1,33.3z"/>
	</g>
</g>
</svg>
