
<svg xmlns="http://www.w3.org/2000/svg" xmlns:xlink="http://www.w3.org/1999/xlink"
	 viewBox="0 0 32 32" xml:space="preserve">


<g fill="currentColor">
	<path d="M1.5,23.2l1.4-2.4c0.6,0.4,1.2,0.6,1.6,0.8c0.5,0.2,1.1,0.2,1.8,0.2c0.9,0,1.6-0.2,2.1-0.7C8.8,20.7,9,20.2,9,19.6
		c0-0.8-0.3-1.4-1-1.8c-0.6-0.4-1.5-0.6-2.7-0.6H4v-2.8h1.2c1.1,0,1.9-0.2,2.4-0.5c0.5-0.4,0.8-1,0.8-1.8c0-0.6-0.2-1.1-0.5-1.4
		c-0.3-0.3-0.8-0.5-1.5-0.5c-0.5,0-1,0.1-1.5,0.2s-1.2,0.4-1.8,0.8L1.9,8.8C2.7,8.3,3.5,8,4.4,7.8s1.7-0.3,2.7-0.3
		c1.5,0,2.8,0.4,3.7,1.1s1.4,1.8,1.4,3c0,1-0.2,1.9-0.7,2.5c-0.5,0.7-1.2,1.2-2.1,1.5v0.1c1,0.2,1.8,0.6,2.4,1.3
		c0.6,0.7,0.9,1.5,0.9,2.5c0,1.5-0.5,2.7-1.6,3.6c-1.1,0.9-2.6,1.4-4.4,1.4c-1,0-1.9-0.1-2.7-0.3C3.2,24,2.3,23.7,1.5,23.2z"/>
	<path d="M15.8,24.3V7.7h5.9c2.9,0,5.2,0.7,6.6,2c1.5,1.3,2.2,3.4,2.2,6.1c0,2.6-0.8,4.6-2.4,6.2c-1.6,1.5-3.8,2.3-6.4,2.3H15.8z
		 M19.5,10.7v10.5h1.8c1.6,0,2.9-0.5,3.8-1.5s1.4-2.3,1.4-4c0-1.6-0.5-2.8-1.4-3.7c-0.9-0.9-2.2-1.4-3.8-1.4H19.5z"/>
</g>
</svg>
