
<svg version="1.1" id="Layer_1" xmlns="http://www.w3.org/2000/svg" xmlns:xlink="http://www.w3.org/1999/xlink" x="0px" y="0px"
	 viewBox="0 0 32 32" xml:space="preserve">
<g fill="currentColor">
	<path d="M5.5,5.5h4v3h7v-3h10v12.6l-2.1-2.1l-1.4,1.4l4.6,4.6l4.6-4.6l-1.4-1.4l-2.1,2.1V3.5h-12v-2h-7v2h-6v6h2V5.5z M11.5,6.5v-3
		h3v3H11.5z"/>
	<path d="M26.5,26.5h-4v-3h-7v3h-10V13.9l2.1,2.1l1.4-1.4l-4.6-4.6l-4.6,4.6l1.4,1.4l2.1-2.1v14.6h12v2h7v-2h6v-6h-2V26.5z
		 M17.5,28.5v-3h3v3H17.5z"/>
</g>
</svg>
