
<svg version="1.1"xmlns="http://www.w3.org/2000/svg" xmlns:xlink="http://www.w3.org/1999/xlink"
	 viewBox="0 0 24 24" xml:space="preserve">

<path fill="currentColor" opacity="0.3" d="M19,22H5c-0.6,0-1-0.4-1-1V3c0-0.6,0.4-1,1-1h9l6,6v13C20,21.6,19.6,22,19,22z"/>
<path fill="currentColor" d="M15,8h5l-6-6v5C14,7.6,14.4,8,15,8z"/>
<g>
	<path fill="currentColor" d="M14,13.9H3c-0.5,0-1,0.4-1,1V18c0,0.5,0.4,1,1,1h11c0.5,0,1-0.4,1-1v-3.1C14.9,14.3,14.5,13.9,14,13.9z"/>
	<g>
		<path fill="#FFFFFF" d="M6.8,17.9H6.1l-0.5-0.9c0,0,0,0,0-0.1c0,0,0-0.1,0-0.1h0c0,0,0,0,0,0.1c0,0,0,0.1,0,0.1L5,17.9H4.2l0.9-1.4
			L4.3,15H5l0.4,0.9c0,0,0,0.1,0,0.1c0,0,0,0.1,0,0.1h0c0,0,0-0.1,0-0.1c0,0,0-0.1,0.1-0.1L6.1,15h0.7l-0.9,1.4L6.8,17.9z"/>
		<path fill="#FFFFFF" d="M10.4,17.9H9.8v-1.7c0-0.1,0-0.2,0-0.3c0-0.1,0-0.2,0-0.3h0c0,0.1,0,0.2,0,0.2s0,0.1,0,0.2L9,17.9H8.5
			l-0.7-1.9c0,0,0-0.1,0-0.1c0-0.1,0-0.1-0.1-0.3h0c0,0.1,0,0.3,0,0.4c0,0.1,0,0.2,0,0.3v1.6H7.2V15h0.9l0.6,1.7
			c0,0.1,0,0.1,0.1,0.2c0,0.1,0,0.1,0,0.2h0c0-0.1,0-0.1,0.1-0.2c0-0.1,0-0.1,0.1-0.2L9.5,15h0.9V17.9z"/>
		<path fill="#FFFFFF" d="M12.8,17.9h-1.7V15h0.6v2.3h1.1V17.9z"/>
	</g>
</g>
</svg>
