
<svg xmlns="http://www.w3.org/2000/svg" xmlns:xlink="http://www.w3.org/1999/xlink"
	 viewBox="0 0 24 24" xml:space="preserve">

<path fill="currentColor" opacity="0.3" d="M19,22H5c-0.6,0-1-0.4-1-1V3c0-0.6,0.4-1,1-1h9l6,6v13C20,21.6,19.6,22,19,22z"/>
<path fill="currentColor" d="M15,8h5l-6-6v5C14,7.6,14.4,8,15,8z"/>
<g>
	<path fill="currentColor" d="M14,13.9H3c-0.5,0-1,0.4-1,1V18c0,0.5,0.4,1,1,1h11c0.5,0,1-0.4,1-1v-3.1C14.9,14.3,14.5,13.9,14,13.9z"/>
	<g>
		<path fill="#FFFFFF" d="M3.6,17.5l0.2-0.4c0.1,0.1,0.2,0.1,0.3,0.1c0.1,0,0.2,0,0.3,0c0.1,0,0.2,0,0.3-0.1c0.1,0,0.1-0.1,0.1-0.2
			c0-0.1,0-0.1-0.1-0.2c0,0-0.1-0.1-0.3-0.1c-0.2-0.1-0.4-0.1-0.5-0.2c-0.1-0.1-0.2-0.2-0.2-0.4c0-0.2,0.1-0.3,0.2-0.5
			c0.1-0.1,0.3-0.2,0.6-0.2c0.1,0,0.2,0,0.3,0c0.1,0,0.2,0.1,0.3,0.1l-0.2,0.4c-0.1,0-0.2-0.1-0.2-0.1c-0.1,0-0.1,0-0.2,0
			c-0.1,0-0.2,0-0.2,0.1c-0.1,0-0.1,0.1-0.1,0.2c0,0.1,0,0.1,0.1,0.2c0.1,0,0.1,0.1,0.3,0.1c0.2,0.1,0.4,0.1,0.5,0.2
			c0.1,0.1,0.2,0.3,0.2,0.4c0,0.2-0.1,0.4-0.2,0.5c-0.1,0.1-0.4,0.2-0.6,0.2c-0.1,0-0.3,0-0.4,0C3.8,17.6,3.7,17.6,3.6,17.5z"/>
		<path fill="#FFFFFF" d="M7.4,17.7H6.9v-0.9H6v0.9H5.5v-2.2H6v0.9h0.9v-0.9h0.5V17.7z"/>
		<path fill="#FFFFFF" d="M7.7,17.7l0.8-2.2h0.6l0.8,2.2H9.3l-0.2-0.5H8.4l-0.2,0.5H7.7z M8.5,16.8h0.6L8.8,16c0,0,0-0.1,0-0.1
			c0,0,0,0,0-0.1h0c0,0,0,0.1,0,0.1c0,0,0,0,0,0.1L8.5,16.8z"/>
		<path fill="#FFFFFF" d="M10.7,16.9v0.7h-0.5v-2.2h0.8c0.3,0,0.5,0.1,0.6,0.2c0.1,0.1,0.2,0.3,0.2,0.5c0,0.2-0.1,0.4-0.2,0.5
			c-0.2,0.1-0.4,0.2-0.6,0.2H10.7z M10.7,15.8v0.7h0.2c0.1,0,0.2,0,0.3-0.1c0.1-0.1,0.1-0.2,0.1-0.3c0-0.1,0-0.2-0.1-0.3
			c-0.1-0.1-0.2-0.1-0.3-0.1H10.7z"/>
		<path fill="#FFFFFF" d="M13.4,17.7h-1.3v-2.2h1.3v0.4h-0.8v0.5h0.7v0.4h-0.7v0.5h0.8V17.7z"/>
	</g>
</g>
</svg>
