
<svg xmlns="http://www.w3.org/2000/svg" xmlns:xlink="http://www.w3.org/1999/xlink"
	 viewBox="0 0 24 24"  xml:space="preserve">

<path fill="currentColor" opacity="0.3" d="M20.3,22h-14c-0.6,0-1-0.4-1-1V3c0-0.6,0.4-1,1-1h9l6,6v13C21.3,21.6,20.9,22,20.3,22z"/>
<path fill="currentColor" d="M16.3,8h5l-6-6v5C15.3,7.6,15.7,8,16.3,8z"/>
<path fill="currentColor" d="M14.7,13.5h-11c-0.5,0-1,0.4-1,1v3.1c0,0.5,0.4,1,1,1h11c0.5,0,1-0.4,1-1v-3.1C15.6,13.9,15.2,13.5,14.7,13.5z"/>
<g>
	<path fill="#FFFFFF" d="M7,17.5l-0.4-0.7c-0.2-0.3-0.3-0.4-0.4-0.6h0c-0.1,0.2-0.2,0.3-0.3,0.6l-0.4,0.7H5.1L6,16l-0.9-1.5h0.5L6,15.2
		c0.1,0.2,0.2,0.4,0.3,0.5h0c0.1-0.2,0.2-0.3,0.3-0.5L7,14.4h0.5l-0.9,1.5l1,1.6H7z"/>
	<path fill="#FFFFFF" d="M10.5,16.2c0-0.4,0-0.9,0-1.3h0c-0.1,0.4-0.2,0.7-0.4,1.2l-0.5,1.5H9.2L8.7,16c-0.1-0.4-0.3-0.8-0.4-1.2h0
		c0,0.4,0,0.9-0.1,1.4l-0.1,1.3H7.8L8,14.4h0.5l0.5,1.5c0.1,0.4,0.2,0.7,0.3,1h0c0.1-0.3,0.2-0.6,0.3-1l0.5-1.5h0.5l0.2,3.1h-0.4
		L10.5,16.2z"/>
	<path fill="#FFFFFF" d="M11.6,14.4H12v2.7h1.3v0.3h-1.7V14.4z"/>
</g>
</svg>
