
<svg version="1.1" xmlns="http://www.w3.org/2000/svg" xmlns:xlink="http://www.w3.org/1999/xlink"
	 viewBox="0 0 24 24" xml:space="preserve">

<path fill="currentColor" opacity="0.3" d="M19,22H5c-0.6,0-1-0.4-1-1V3c0-0.6,0.4-1,1-1h9l6,6v13C20,21.6,19.6,22,19,22z"/>
<path fill="currentColor" d="M15,8h5l-6-6v5C14,7.6,14.4,8,15,8z"/>
<g>
	<path fill="currentColor" d="M14,13.9H3c-0.5,0-1,0.4-1,1V18c0,0.5,0.4,1,1,1h11c0.5,0,1-0.4,1-1v-3.1C14.9,14.3,14.5,13.9,14,13.9z"/>
	<g>
		<path fill="#FFFFFF" d="M4,17.5c-0.3,0-0.5-0.1-0.7-0.3C3.1,17,3,16.8,3,16.5c0-0.3,0.1-0.6,0.3-0.8c0.2-0.2,0.4-0.3,0.7-0.3
			c0.3,0,0.5,0.1,0.7,0.3C4.9,15.9,5,16.1,5,16.4c0,0.3-0.1,0.6-0.3,0.8C4.6,17.4,4.3,17.5,4,17.5z M4,17.1c0.2,0,0.3-0.1,0.4-0.2
			c0.1-0.1,0.1-0.3,0.1-0.5c0-0.2,0-0.4-0.1-0.5c-0.1-0.1-0.2-0.2-0.4-0.2c-0.2,0-0.3,0.1-0.4,0.2c-0.1,0.1-0.1,0.3-0.1,0.5
			c0,0.2,0,0.4,0.1,0.5C3.7,17.1,3.9,17.1,4,17.1z"/>
		<path fill="#FFFFFF" d="M7.1,17.5H6.6L6.3,17c0-0.1-0.1-0.1-0.1-0.2S6,16.7,6,16.7H5.9v0.8H5.4v-2.1h0.7c0.2,0,0.4,0,0.6,0.1
			c0.1,0.1,0.2,0.2,0.2,0.4c0,0.1,0,0.3-0.1,0.4s-0.2,0.2-0.3,0.2v0c0.1,0,0.1,0.1,0.2,0.1c0.1,0.1,0.1,0.1,0.1,0.2L7.1,17.5z
			 M5.9,15.7v0.6h0.2c0.1,0,0.2,0,0.2-0.1c0.1-0.1,0.1-0.1,0.1-0.2c0-0.1,0-0.2-0.1-0.2c-0.1,0-0.1-0.1-0.2-0.1H5.9z"/>
		<path fill="#FFFFFF" d="M7.1,17.5l0.8-2.1h0.5l0.7,2.1H8.6L8.5,17H7.7l-0.1,0.4H7.1z M7.8,16.7h0.6l-0.2-0.7c0,0,0-0.1,0-0.1
			c0,0,0,0,0-0.1h0c0,0,0,0.1,0,0.1c0,0,0,0,0,0.1L7.8,16.7z"/>
		<path fill="#FFFFFF" d="M10.9,17.4c-0.1,0.1-0.2,0.1-0.3,0.1c-0.1,0-0.2,0-0.3,0c-0.3,0-0.6-0.1-0.8-0.3c-0.2-0.2-0.3-0.4-0.3-0.8
			c0-0.3,0.1-0.6,0.3-0.8c0.2-0.2,0.5-0.3,0.8-0.3c0.1,0,0.2,0,0.3,0c0.1,0,0.2,0,0.3,0.1l-0.1,0.4c-0.1,0-0.1,0-0.2-0.1
			c-0.1,0-0.1,0-0.2,0c-0.2,0-0.3,0.1-0.4,0.2c-0.1,0.1-0.2,0.3-0.2,0.5c0,0.2,0.1,0.4,0.2,0.5c0.1,0.1,0.3,0.2,0.4,0.2
			c0.1,0,0.1,0,0.2,0c0.1,0,0.2,0,0.2-0.1L10.9,17.4z"/>
		<path fill="#FFFFFF" d="M12.5,17.5h-1.2v-2.1h0.4v1.7h0.8V17.5z"/>
		<path fill="#FFFFFF" d="M14,17.5h-1.2v-2.1h1.2v0.4h-0.7v0.5h0.7v0.4h-0.7v0.5H14V17.5z"/>
	</g>
</g>
</svg>
