
<svg xmlns="http://www.w3.org/2000/svg" xmlns:xlink="http://www.w3.org/1999/xlink" 
	 viewBox="0 0 24 24" xml:space="preserve">
<path fill="currentColor" opacity="0.3" d="M19,22H5c-0.6,0-1-0.4-1-1V3c0-0.6,0.4-1,1-1h9l6,6v13C20,21.6,19.6,22,19,22z"/>
<path fill="currentColor" d="M15,8h5l-6-6v5C14,7.6,14.4,8,15,8z"/>
<g>
	<path fill="currentColor" d="M14,13.9H3c-0.5,0-1,0.4-1,1V18c0,0.5,0.4,1,1,1h11c0.5,0,1-0.4,1-1v-3.1C14.9,14.3,14.5,13.9,14,13.9z"/>
</g>
<g>
	<path fill="currentColor" d="M4.6,17.6l0.3-0.5c0.1,0.1,0.3,0.2,0.4,0.2s0.2,0,0.4,0c0.2,0,0.3,0,0.4-0.1s0.1-0.2,0.1-0.3c0-0.1,0-0.2-0.1-0.2
		c-0.1-0.1-0.2-0.1-0.3-0.1c-0.3-0.1-0.6-0.2-0.7-0.3C5,16.2,4.9,16,4.9,15.7c0-0.3,0.1-0.5,0.3-0.6c0.2-0.2,0.5-0.3,0.8-0.3
		c0.1,0,0.3,0,0.4,0s0.3,0.1,0.4,0.1l-0.2,0.5c-0.1-0.1-0.2-0.1-0.3-0.1c-0.1,0-0.2,0-0.3,0c-0.1,0-0.2,0-0.3,0.1
		c-0.1,0.1-0.1,0.1-0.1,0.2c0,0.1,0,0.2,0.1,0.2s0.2,0.1,0.4,0.1c0.3,0.1,0.6,0.2,0.7,0.3S7,16.5,7,16.8c0,0.3-0.1,0.5-0.3,0.7
		c-0.2,0.2-0.5,0.3-0.9,0.3c-0.2,0-0.3,0-0.5-0.1C4.9,17.7,4.8,17.7,4.6,17.6z"/>
	<path fill="currentColor" d="M8.6,17.9c-0.4,0-0.8-0.1-1-0.4c-0.3-0.3-0.4-0.6-0.4-1.1s0.1-0.9,0.4-1.1c0.3-0.3,0.6-0.4,1.1-0.4c0.4,0,0.8,0.1,1,0.4
		c0.3,0.3,0.4,0.6,0.4,1.1c0,0.3,0,0.5-0.1,0.7s-0.2,0.4-0.3,0.5l0.5,0.4l-0.5,0.4l-0.5-0.5c-0.1,0-0.1,0-0.2,0
		C8.7,17.9,8.7,17.9,8.6,17.9z M8.6,15.3c-0.2,0-0.4,0.1-0.6,0.3c-0.1,0.2-0.2,0.4-0.2,0.7c0,0.3,0.1,0.5,0.2,0.7
		c0.1,0.2,0.3,0.3,0.6,0.3c0.2,0,0.4-0.1,0.6-0.3c0.1-0.2,0.2-0.4,0.2-0.7c0-0.3-0.1-0.6-0.2-0.7C9,15.4,8.8,15.3,8.6,15.3z"/>
	<path fill="currentColor" d="M12.4,17.8h-1.8v-3h0.7v2.5h1.1V17.8z"/>
</g>
<g>
	<path fill="currentColor" d="M14.1,14h-11c-0.5,0-1,0.4-1,1v3.1c0,0.5,0.4,1,1,1h11c0.5,0,1-0.4,1-1V15C15,14.4,14.6,14,14.1,14z"/>
</g>
<g>
	<path fill="#FFFFFF" d="M4.7,17.7L5,17.2c0.1,0.1,0.3,0.2,0.4,0.2s0.2,0,0.4,0c0.2,0,0.3,0,0.4-0.1s0.1-0.2,0.1-0.3
		c0-0.1,0-0.2-0.1-0.2c-0.1-0.1-0.2-0.1-0.3-0.1c-0.3-0.1-0.6-0.2-0.7-0.3C5.1,16.3,5,16.1,5,15.8c0-0.3,0.1-0.5,0.3-0.6
		c0.2-0.2,0.5-0.3,0.8-0.3c0.1,0,0.3,0,0.4,0S6.8,15,6.9,15l-0.2,0.5c-0.1-0.1-0.2-0.1-0.3-0.1c-0.1,0-0.2,0-0.3,0
		c-0.1,0-0.2,0-0.3,0.1c-0.1,0.1-0.1,0.1-0.1,0.2c0,0.1,0,0.2,0.1,0.2C5.7,16,5.8,16,6,16.1c0.3,0.1,0.6,0.2,0.7,0.3
		c0.1,0.1,0.2,0.3,0.2,0.6c0,0.3-0.1,0.5-0.3,0.7C6.4,17.9,6.1,18,5.7,18c-0.2,0-0.3,0-0.5-0.1S4.9,17.8,4.7,17.7z"/>
	<path fill="#FFFFFF" d="M8.7,18c-0.4,0-0.8-0.1-1-0.4c-0.3-0.3-0.4-0.6-0.4-1.1s0.1-0.9,0.4-1.1C8,15.1,8.3,15,8.8,15
		c0.4,0,0.8,0.1,1,0.4c0.3,0.3,0.4,0.6,0.4,1.1c0,0.3,0,0.5-0.1,0.7s-0.2,0.4-0.3,0.5l0.5,0.4l-0.5,0.4L9.3,18c-0.1,0-0.1,0-0.2,0
		C8.8,17.9,8.7,18,8.7,18z M8.7,15.4c-0.2,0-0.4,0.1-0.6,0.3c-0.1,0.2-0.2,0.4-0.2,0.7s0.1,0.5,0.2,0.7c0.1,0.2,0.3,0.3,0.6,0.3
		c0.2,0,0.4-0.1,0.6-0.3c0.1-0.2,0.2-0.4,0.2-0.7c0-0.3-0.1-0.6-0.2-0.7C9.1,15.5,8.9,15.4,8.7,15.4z"/>
	<path fill="#FFFFFF" d="M12.5,17.9h-1.8v-3h0.7v2.5h1.1V17.9z"/>
</g>
</svg>
