
<svg xmlns="http://www.w3.org/2000/svg" xmlns:xlink="http://www.w3.org/1999/xlink"
	 viewBox="0 0 24 24" xml:space="preserve">

<path fill="currentColor" opacity="0.3" d="M19,22H5c-0.6,0-1-0.4-1-1V3c0-0.6,0.4-1,1-1h9l6,6v13C20,21.6,19.6,22,19,22z"/>
<path fill="currentColor" d="M15,8h5l-6-6v5C14,7.6,14.4,8,15,8z"/>
<path fill="currentColor" d="M14,13.9H3c-0.5,0-1,0.4-1,1V18c0,0.5,0.4,1,1,1h11c0.5,0,1-0.4,1-1v-3.1C14.9,14.3,14.5,13.9,14,13.9z"/>
<g>
	<path fill="#FFFFFF" d="M6.6,17.8c-0.2,0.1-0.3,0.1-0.5,0.2c-0.1,0-0.3,0-0.5,0c-0.5,0-0.8-0.1-1.1-0.4c-0.3-0.3-0.4-0.6-0.4-1.1
		c0-0.5,0.1-0.8,0.4-1.1c0.3-0.3,0.7-0.5,1.2-0.5c0.2,0,0.3,0,0.4,0c0.1,0,0.3,0.1,0.4,0.1l-0.2,0.5c-0.1,0-0.2-0.1-0.3-0.1
		c-0.1,0-0.2,0-0.3,0c-0.3,0-0.5,0.1-0.7,0.3c-0.2,0.2-0.3,0.4-0.3,0.7c0,0.3,0.1,0.5,0.2,0.7s0.4,0.3,0.7,0.3c0.1,0,0.2,0,0.3,0
		c0.1,0,0.2-0.1,0.3-0.1L6.6,17.8z"/>
	<path fill="#FFFFFF" d="M6.8,17.9l1.1-3h0.8l1.1,3H9l-0.2-0.6H7.7l-0.2,0.6H6.8z M7.9,16.8h0.8l-0.3-1.1c0,0,0-0.1,0-0.1
		c0,0,0-0.1,0-0.1h0c0,0,0,0.1,0,0.1c0,0,0,0.1,0,0.1L7.9,16.8z"/>
	<path fill="#FFFFFF" d="M10.2,17.9v-3h1c0.5,0,0.9,0.1,1.2,0.4c0.3,0.2,0.4,0.6,0.4,1.1c0,0.5-0.1,0.8-0.4,1.1
		c-0.3,0.3-0.7,0.4-1.2,0.4H10.2z M10.8,15.5v1.9h0.3c0.3,0,0.5-0.1,0.7-0.3c0.2-0.2,0.3-0.4,0.3-0.7c0-0.3-0.1-0.5-0.2-0.7
		c-0.2-0.2-0.4-0.2-0.7-0.2H10.8z"/>
</g>
</svg>
