
<svg xmlns="http://www.w3.org/2000/svg" xmlns:xlink="http://www.w3.org/1999/xlink"
	 viewBox="0 0 24 24" xml:space="preserve">

<path fill="currentColor" opacity="0.3" d="M19,22H5c-0.6,0-1-0.4-1-1V3c0-0.6,0.4-1,1-1h9l6,6v13C20,21.6,19.6,22,19,22z"/>
<path fill="currentColor" d="M15,8h5l-6-6v5C14,7.6,14.4,8,15,8z"/>
<g>
	<path fill="currentColor" d="M14,13.9H3c-0.5,0-1,0.4-1,1V18c0,0.5,0.4,1,1,1h11c0.5,0,1-0.4,1-1v-3.1C14.9,14.3,14.5,13.9,14,13.9z"/>
	<g>
		<path fill="#FFFFFF" d="M6.5,17.8C6.4,17.9,6.2,18,6.1,18c-0.2,0-0.4,0.1-0.6,0.1c-0.5,0-0.8-0.1-1.1-0.4c-0.3-0.2-0.4-0.6-0.4-1.1
			c0-0.5,0.1-0.8,0.4-1.1C4.6,15.2,5,15,5.5,15c0.2,0,0.4,0,0.5,0c0.2,0,0.3,0.1,0.5,0.2l-0.2,0.5c-0.1-0.1-0.3-0.1-0.4-0.1
			c-0.1,0-0.3,0-0.4,0c-0.3,0-0.5,0.1-0.7,0.3s-0.2,0.4-0.2,0.8c0,0.3,0.1,0.6,0.2,0.7c0.2,0.2,0.4,0.2,0.6,0.2c0.1,0,0.2,0,0.2,0
			c0.1,0,0.1,0,0.2-0.1v-0.6H5.3v-0.5h1.2V17.8z"/>
		<path fill="#FFFFFF" d="M7.2,18.1v-3h1c0.5,0,0.9,0.1,1.2,0.4c0.3,0.2,0.4,0.6,0.4,1.1c0,0.5-0.1,0.8-0.4,1.1
			c-0.3,0.3-0.7,0.4-1.2,0.4H7.2z M7.8,15.6v1.9h0.3c0.3,0,0.5-0.1,0.7-0.3c0.2-0.2,0.3-0.4,0.3-0.7c0-0.3-0.1-0.5-0.2-0.7
			c-0.2-0.2-0.4-0.2-0.7-0.2H7.8z"/>
		<path fill="#FFFFFF" d="M10.3,18.1v-3h1.1c0.3,0,0.6,0.1,0.8,0.2c0.2,0.1,0.3,0.3,0.3,0.5c0,0.2,0,0.3-0.1,0.4
			c-0.1,0.1-0.2,0.2-0.4,0.3v0c0.2,0,0.3,0.1,0.5,0.2c0.1,0.1,0.2,0.3,0.2,0.5c0,0.3-0.1,0.5-0.3,0.6c-0.2,0.2-0.5,0.2-0.8,0.2H10.3
			z M11,15.6v0.7h0.3c0.1,0,0.3,0,0.3-0.1c0.1-0.1,0.1-0.2,0.1-0.3c0-0.1,0-0.2-0.1-0.3c-0.1-0.1-0.2-0.1-0.4-0.1H11z M11,16.8v0.8
			h0.4c0.2,0,0.3,0,0.4-0.1c0.1-0.1,0.1-0.2,0.1-0.3c0-0.1,0-0.2-0.1-0.3c-0.1-0.1-0.2-0.1-0.4-0.1H11z"/>
	</g>
</g>
</svg>
