<?xml version="1.0" encoding="utf-8"?>
<!-- Generator: Adobe Illustrator 26.5.0, SVG Export Plug-In . SVG Version: 6.00 Build 0)  -->
<svg version="1.1" id="Layer_1" xmlns="http://www.w3.org/2000/svg" xmlns:xlink="http://www.w3.org/1999/xlink" x="0px" y="0px"
	 viewBox="0 0 131 37.7" style="enable-background:new 0 0 131 37.7;" xml:space="preserve">
<style type="text/css">
	.st0{fill:#93278F;}
</style>
<g>
	<g>
		<path class="st0" d="M45.8,9.4h1.6l3.4,7.9h-1.8l-0.7-1.8h-3.3l-0.7,1.8h-1.8L45.8,9.4z M47.6,14l-1-2.6l-1,2.6H47.6z"/>
		<path class="st0" d="M50.7,16.5l0.7-1.1c0.7,0.5,1.3,0.7,1.9,0.7c0.5,0,0.7-0.2,0.7-0.4v0c0-0.4-0.6-0.5-1.2-0.7
			C52,14.7,51,14.3,51,13.1v0c0-1.2,1-1.9,2.2-1.9c0.8,0,1.6,0.3,2.2,0.7l-0.7,1.2c-0.6-0.3-1.2-0.6-1.6-0.6c-0.4,0-0.6,0.2-0.6,0.4
			v0c0,0.3,0.6,0.5,1.2,0.7c0.8,0.3,1.8,0.7,1.8,1.8v0c0,1.3-1,1.9-2.3,1.9C52.5,17.4,51.5,17.1,50.7,16.5z"/>
		<path class="st0" d="M55.7,16.5l0.7-1.1c0.7,0.5,1.3,0.7,1.9,0.7c0.5,0,0.7-0.2,0.7-0.4v0c0-0.4-0.6-0.5-1.2-0.7
			C57,14.7,56,14.3,56,13.1v0c0-1.2,1-1.9,2.2-1.9c0.8,0,1.6,0.3,2.2,0.7l-0.7,1.2c-0.6-0.3-1.2-0.6-1.6-0.6c-0.4,0-0.6,0.2-0.6,0.4
			v0c0,0.3,0.6,0.5,1.2,0.7c0.8,0.3,1.8,0.7,1.8,1.8v0c0,1.3-1,1.9-2.3,1.9C57.5,17.4,56.5,17.1,55.7,16.5z"/>
		<path class="st0" d="M61,14.3L61,14.3c0-1.7,1.2-3.2,3-3.2c2,0,2.9,1.6,2.9,3.3c0,0.1,0,0.3,0,0.4h-4.2c0.2,0.8,0.7,1.2,1.5,1.2
			c0.6,0,1-0.2,1.5-0.6l1,0.9c-0.6,0.7-1.4,1.1-2.5,1.1C62.3,17.4,61,16.2,61,14.3z M65.2,13.8c-0.1-0.8-0.6-1.3-1.3-1.3
			c-0.7,0-1.2,0.5-1.3,1.3H65.2z"/>
		<path class="st0" d="M67.9,15.6v-2.9h-0.7v-1.5h0.7V9.7h1.7v1.5H71v1.5h-1.4v2.6c0,0.4,0.2,0.6,0.6,0.6c0.3,0,0.6-0.1,0.8-0.2v1.4
			c-0.4,0.2-0.8,0.3-1.3,0.3C68.6,17.4,67.9,17,67.9,15.6z"/>
		<path class="st0" d="M71.2,16.5l0.7-1.1c0.7,0.5,1.3,0.7,1.9,0.7c0.5,0,0.7-0.2,0.7-0.4v0c0-0.4-0.6-0.5-1.2-0.7
			c-0.8-0.2-1.8-0.6-1.8-1.8v0c0-1.2,1-1.9,2.2-1.9c0.8,0,1.6,0.3,2.2,0.7l-0.7,1.2c-0.6-0.3-1.2-0.6-1.6-0.6
			c-0.4,0-0.6,0.2-0.6,0.4v0c0,0.3,0.6,0.5,1.2,0.7c0.8,0.3,1.8,0.7,1.8,1.8v0c0,1.3-1,1.9-2.3,1.9C73,17.4,72,17.1,71.2,16.5z"/>
		<path class="st0" d="M81.6,11h-2.4V9.4h6.5V11h-2.4v6.3h-1.7V11z"/>
		<path class="st0" d="M85.7,11.3h1.7v1.2c0.3-0.8,0.9-1.4,1.9-1.3V13h-0.1c-1.1,0-1.8,0.7-1.8,2.1v2.2h-1.7V11.3z"/>
		<path class="st0" d="M89.2,15.6L89.2,15.6c0-1.3,1-1.9,2.4-1.9c0.6,0,1,0.1,1.5,0.2v-0.1c0-0.7-0.4-1.1-1.3-1.1
			c-0.7,0-1.1,0.1-1.7,0.3l-0.4-1.3c0.7-0.3,1.3-0.5,2.3-0.5c0.9,0,1.6,0.2,2,0.7c0.4,0.4,0.7,1.1,0.7,1.9v3.5H93v-0.7
			c-0.4,0.5-1,0.8-1.8,0.8C90.1,17.4,89.2,16.8,89.2,15.6z M93.1,15.2v-0.3c-0.3-0.1-0.7-0.2-1.1-0.2c-0.7,0-1.2,0.3-1.2,0.8v0
			c0,0.5,0.4,0.7,0.9,0.7C92.5,16.2,93.1,15.8,93.1,15.2z"/>
		<path class="st0" d="M95.6,11.3h1.7v0.9c0.4-0.5,0.9-1,1.8-1c1.3,0,2,0.9,2,2.2v3.9h-1.7V14c0-0.8-0.4-1.2-1-1.2
			c-0.7,0-1.1,0.4-1.1,1.2v3.4h-1.7V11.3z"/>
		<path class="st0" d="M101.6,16.5l0.7-1.1c0.7,0.5,1.3,0.7,1.9,0.7c0.5,0,0.7-0.2,0.7-0.4v0c0-0.4-0.6-0.5-1.2-0.7
			c-0.8-0.2-1.8-0.6-1.8-1.8v0c0-1.2,1-1.9,2.2-1.9c0.8,0,1.6,0.3,2.2,0.7l-0.7,1.2c-0.6-0.3-1.2-0.6-1.6-0.6
			c-0.4,0-0.6,0.2-0.6,0.4v0c0,0.3,0.6,0.5,1.2,0.7c0.8,0.3,1.8,0.7,1.8,1.8v0c0,1.3-1,1.9-2.3,1.9
			C103.3,17.4,102.4,17.1,101.6,16.5z"/>
		<path class="st0" d="M107.4,12.7h-0.7v-1.4h0.7V11c0-0.7,0.2-1.1,0.5-1.5c0.3-0.3,0.8-0.5,1.4-0.5c0.5,0,0.9,0.1,1.2,0.2v1.4
			c-0.2-0.1-0.5-0.1-0.8-0.1c-0.4,0-0.6,0.2-0.6,0.7v0.2h1.4v1.4h-1.4v4.6h-1.7V12.7z"/>
		<path class="st0" d="M110.5,14.3L110.5,14.3c0-1.8,1.4-3.2,3.3-3.2c1.9,0,3.3,1.4,3.3,3.1v0c0,1.7-1.4,3.1-3.3,3.1
			C111.8,17.4,110.5,16.1,110.5,14.3z M115.3,14.3L115.3,14.3c0-0.9-0.6-1.7-1.6-1.7c-1,0-1.6,0.8-1.6,1.6v0c0,0.9,0.6,1.7,1.6,1.7
			C114.7,16,115.3,15.2,115.3,14.3z"/>
		<path class="st0" d="M117.7,11.3h1.7v1.2c0.3-0.8,0.9-1.4,1.9-1.3V13h-0.1c-1.1,0-1.8,0.7-1.8,2.1v2.2h-1.7V11.3z"/>
		<path class="st0" d="M121.8,11.3h1.7v0.9c0.4-0.5,0.9-1,1.8-1c0.8,0,1.4,0.3,1.7,1c0.5-0.6,1.2-1,2-1c1.3,0,2,0.8,2,2.2v3.9h-1.7
			V14c0-0.8-0.4-1.2-1-1.2c-0.6,0-1,0.4-1,1.2v3.4h-1.7V14c0-0.8-0.4-1.2-1-1.2c-0.6,0-1,0.4-1,1.2v3.4h-1.7V11.3z"/>
		<path class="st0" d="M47.5,27.8c-0.6,0.5-1.4,0.9-2.3,0.9c-1.5,0-2.6-0.9-2.6-2.3v0c0-1,0.5-1.7,1.5-2.2c-0.4-0.5-0.6-1-0.6-1.6v0
			c0-1.1,0.9-2.1,2.4-2.1c1.3,0,2.2,0.9,2.2,2v0c0,1.1-0.7,1.7-1.7,2.1l1,1c0.3-0.4,0.5-0.9,0.8-1.3l1.3,0.7c-0.3,0.6-0.6,1.1-1,1.7
			l1.2,1.2l-1.3,0.9L47.5,27.8z M46.5,26.8L45,25.3c-0.5,0.3-0.7,0.7-0.7,1v0c0,0.6,0.5,0.9,1.1,0.9C45.8,27.3,46.1,27.1,46.5,26.8z
			 M46.6,22.7L46.6,22.7c0-0.5-0.3-0.8-0.7-0.8c-0.5,0-0.8,0.3-0.8,0.8v0c0,0.3,0.1,0.6,0.5,1C46.2,23.4,46.6,23.2,46.6,22.7z"/>
		<path class="st0" d="M53.2,20.7h1.7V27h3.9v1.6h-5.7V20.7z"/>
		<path class="st0" d="M59,25.6L59,25.6c0-1.8,1.4-3.2,3.3-3.2c1.9,0,3.3,1.4,3.3,3.1v0c0,1.7-1.4,3.1-3.3,3.1
			C60.3,28.7,59,27.3,59,25.6z M63.8,25.6L63.8,25.6c0-0.9-0.6-1.7-1.6-1.7c-1,0-1.6,0.8-1.6,1.6v0c0,0.9,0.6,1.7,1.6,1.7
			C63.2,27.2,63.8,26.5,63.8,25.6z"/>
		<path class="st0" d="M65.8,26.8L65.8,26.8c0-1.3,1-1.9,2.4-1.9c0.6,0,1,0.1,1.5,0.2V25c0-0.7-0.4-1.1-1.3-1.1
			c-0.7,0-1.1,0.1-1.7,0.3l-0.4-1.3c0.7-0.3,1.3-0.5,2.3-0.5c0.9,0,1.6,0.2,2,0.7c0.4,0.5,0.7,1.1,0.7,1.9v3.5h-1.7v-0.7
			c-0.4,0.5-1,0.8-1.8,0.8C66.7,28.7,65.8,28,65.8,26.8z M69.7,26.4v-0.3c-0.3-0.1-0.7-0.2-1.1-0.2c-0.7,0-1.2,0.3-1.2,0.8v0
			c0,0.5,0.4,0.7,0.9,0.7C69.2,27.5,69.7,27.1,69.7,26.4z"/>
		<path class="st0" d="M72,25.6L72,25.6c0-2,1.3-3.1,2.7-3.1c0.9,0,1.5,0.4,1.9,0.9v-3h1.7v8.2h-1.7v-0.9c-0.4,0.6-1,1-1.9,1
			C73.3,28.7,72,27.6,72,25.6z M76.6,25.6L76.6,25.6c0-1-0.7-1.7-1.5-1.7c-0.8,0-1.5,0.7-1.5,1.7v0c0,1,0.7,1.7,1.5,1.7
			C76,27.2,76.6,26.6,76.6,25.6z"/>
	</g>
	<g>
		<path class="st0" d="M18.7,0.1C8.4,0.1,0,8.5,0,18.9v18.7h18.7c10.4,0,18.7-8.4,18.7-18.7V0.1H18.7z M33.7,18.9
			c0,8.3-6.7,15-15,15h-15v-15c0-8.3,6.7-15,15-15h15V18.9z"/>
		<path class="st0" d="M29,22L29,22c0,0.6-0.5,1-1,1h-3.8c-0.8,0-1.5-0.7-1.5-1.5v-4.8h-2v0h-0.1v4.8c0,0.8-0.7,1.5-1.5,1.5h-3.9
			c-0.6,0-1.2-0.4-1.4-1l-1.5-4.3l-1.6,4.5c-0.2,0.5-0.6,0.8-1.1,0.8h0c-0.8,0-1.4-0.8-1.1-1.6l2.4-5.8c0.2-0.6,0.8-0.9,1.4-0.9h0.1
			c0.6,0,1.2,0.4,1.4,0.9l1.8,4.5c0.2,0.6,0.8,0.9,1.4,0.9h1.4v-4.3H17c-0.6,0-1-0.5-1-1v0c0-0.6,0.5-1,1-1h6.5
			c0.8,0,1.5,0.7,1.5,1.5V21h3C28.6,21,29,21.4,29,22z"/>
	</g>
</g>
</svg>
