<?xml version="1.0" encoding="utf-8"?>
<!-- Generator: Adobe Illustrator 26.5.0, SVG Export Plug-In . SVG Version: 6.00 Build 0)  -->
<svg version="1.1" id="Layer_1" xmlns="http://www.w3.org/2000/svg" xmlns:xlink="http://www.w3.org/1999/xlink" x="0px" y="0px"
	 viewBox="0 0 50 42.4" style="enable-background:new 0 0 50 42.4;" xml:space="preserve">
<style type="text/css">
	.st0{fill:#0094FF;}
</style>
<g>
	<path class="st0" d="M25.5,1.2c-11,0-20,9-20,20v20h20c11,0,20-9,20-20v-20H25.5z M41.5,21.2c0,8.8-7.2,16-16,16h-16v-16
		c0-8.8,7.2-16,16-16h16V21.2z"/>
	<path class="st0" d="M31,16.3h-1h-1.4c-0.6,0-1.1,0.4-1.3,0.9c-0.1,0.2-0.1,0.3-0.1,0.5v3.6l-3.7-4.7l0,0c-0.1-0.2-0.4-0.3-0.6-0.3
		h-0.7c-0.7,0-1.3,0.5-1.4,1.1c0,0.1,0,0.2,0,0.3v4.5c-0.1,1.1-0.8,1.6-1.8,1.6c-1.1,0-1.8-0.7-1.8-2.1v-4.1c0-0.7-0.6-1.3-1.3-1.3
		h0c-0.8,0-1.4,0.6-1.4,1.4v4c0,3,1.7,4.4,4.5,4.4c0.7,0,1.3-0.1,1.8-0.2c1.4-0.4,2.4-1.5,2.7-3.2c0.1-0.3,0.1-0.7,0.1-1.1v-0.9
		l3.7,4.7v0c0.3,0.3,0.7,0.5,1.1,0.5H30h0.9c3.5,0,5.5-2.1,5.5-4.9v0C36.5,18.3,34.5,16.3,31,16.3z M33.7,21.1
		c0,1.6-1.1,2.5-2.7,2.5h-1v-5h1C32.6,18.6,33.7,19.6,33.7,21.1L33.7,21.1z"/>
</g>
</svg>
