<?xml version="1.0" encoding="UTF-8"?>
<svg id="Layer_2" data-name="Layer 2" xmlns="http://www.w3.org/2000/svg" viewBox="0 0 77.94 77.94">
  <g id="Layer_1-2" data-name="Layer 1">
    <path d="M38.97,0C17.447,0,0,17.447,0,38.97v38.97H38.97c21.522,0,38.97-17.447,38.97-38.97V0H38.97Zm31.176,38.97c0,17.218-13.958,31.176-31.176,31.176H7.794v-31.176c0-17.218,13.958-31.176,31.176-31.176h31.176v31.176Z" style="fill: #ed1c24;"/>
    <g>
      <path d="M47.522,43.946l-4.688-11.678c-.401-.998-1.241-1.787-2.29-2.027-1.595-.365-3.15,.49-3.733,1.937l-3.197,7.936v-7.411c0-1.215-.888-2.3-2.097-2.415-1.387-.132-2.554,.955-2.554,2.315v6.638l-6.042-7.762c-.468-.602-1.134-1.041-1.887-1.162-1.843-.296-3.434,1.119-3.434,2.906v11.588c0,1.215,.888,2.3,2.097,2.415,1.387,.132,2.554-.955,2.554-2.315v-6.977l6.514,8.338c.476,.609,1.206,.965,1.979,.965h2.869c1.361,0,2.575-.853,3.037-2.132l3.106-8.6,3.252,9.06c.336,.937,1.188,1.629,2.183,1.67,1.754,.072,2.975-1.681,2.329-3.289Z" style="fill: #ed1c24;"/>
      <path d="M46.917,30.157h0c1.012,0,1.915,.635,2.257,1.588l3.283,9.145,3.315-9.179c.337-.932,1.222-1.554,2.213-1.554h0c1.667,0,2.805,1.686,2.182,3.232l-4.764,11.827c-.492,1.221-1.677,2.021-2.993,2.021h0c-1.318,0-2.504-.802-2.995-2.025l-4.723-11.765c-.632-1.575,.528-3.291,2.225-3.291Z" style="fill: #ed1c24;"/>
    </g>
  </g>
</svg>