<?xml version="1.0" encoding="UTF-8"?>
<svg id="Layer_2" data-name="Layer 2" xmlns="http://www.w3.org/2000/svg" viewBox="0 0 77.94 77.94">
  <g id="Layer_1-2" data-name="Layer 1">
    <g>
      <path d="M38.97,0C17.447,0,0,17.447,0,38.97v38.97H38.97c21.522,0,38.97-17.447,38.97-38.97V0H38.97Zm31.176,38.97c0,17.218-13.958,31.176-31.176,31.176H7.794v-31.176c0-17.218,13.958-31.176,31.176-31.176h31.176v31.176Z" style="fill: #0094ff;"/>
      <path d="M49.68,29.326h-4.586c-1.158,0-2.149,.716-2.55,1.732-.126,.313-.195,.656-.195,1.013v7.015l-7.138-9.169h0c-.289-.372-.734-.59-1.205-.59h-1.405c-1.331,0-2.443,.95-2.692,2.209-.033,.173-.052,.351-.052,.535v8.755c-.266,2.075-1.564,3.055-3.463,3.055-2.11,0-3.491-1.298-3.491-4.029v-7.967c0-1.413-1.145-2.558-2.558-2.558h0c-1.516,0-2.744,1.229-2.744,2.744v7.887c0,5.925,3.384,8.656,8.738,8.656,1.29,0,2.47-.154,3.518-.478,2.786-.843,4.652-2.846,5.192-6.175,.107-.659,.162-1.372,.162-2.138v-1.74l7.138,9.136h0c.514,.658,1.303,1.043,2.139,1.043h5.085c6.79,0,10.766-4.056,10.766-9.52v-.055c0-5.464-3.922-9.361-10.659-9.361Zm5.302,9.496c0,3.057-2.083,4.789-5.247,4.789h-1.998v-9.658h1.998c3.164,0,5.247,1.784,5.247,4.814v.055Z" style="fill: #0094ff;"/>
    </g>
  </g>
</svg>