<?xml version="1.0" encoding="UTF-8"?>
<svg id="Layer_2" data-name="Layer 2" xmlns="http://www.w3.org/2000/svg" viewBox="0 0 77.94 77.94">
  <g id="Layer_1-2" data-name="Layer 1">
    <g>
      <path d="M38.97,0C17.447,0,0,17.447,0,38.97v38.97H38.97c21.522,0,38.97-17.447,38.97-38.97V0H38.97Zm31.176,38.97c0,17.218-13.958,31.176-31.176,31.176H7.794v-31.176c0-17.218,13.958-31.176,31.176-31.176h31.176v31.176Z" style="fill: #93278f;"/>
      <path d="M60.339,45.451h0c0,1.159-.939,2.098-2.098,2.098h-7.928c-1.731,0-3.135-1.404-3.135-3.135v-9.95h-4.063v.023h-.135v10.053c0,1.731-1.404,3.135-3.135,3.135h-8.08c-1.323,0-2.504-.831-2.951-2.076l-3.18-8.862-3.378,9.355c-.343,.95-1.245,1.584-2.256,1.584h0c-1.699,0-2.859-1.718-2.225-3.294l4.893-12.151c.478-1.187,1.629-1.964,2.908-1.964h.209c1.281,0,2.432,.779,2.909,1.967l3.734,9.303c.477,1.188,1.629,1.967,2.909,1.967h2.987v-9.04h-3.061c-1.159,0-2.099-.94-2.099-2.099h0c0-1.159,.94-2.099,2.099-2.099h13.57c1.731,0,3.135,1.404,3.135,3.135v9.953h6.271c1.159,0,2.098,.939,2.098,2.098Z" style="fill: #93278f;"/>
    </g>
  </g>
</svg>