<?xml version="1.0" encoding="utf-8"?>
<!-- Generator: Adobe Illustrator 27.0.1, SVG Export Plug-In . SVG Version: 6.00 Build 0)  -->
<svg version="1.1" id="Layer_1" xmlns="http://www.w3.org/2000/svg" xmlns:xlink="http://www.w3.org/1999/xlink" x="0px" y="0px"
	 viewBox="0 0 40.4 24" style="enable-background:new 0 0 40.4 24;" xml:space="preserve">
<g fill="currentColor">
	<path d="M1.7,19.1c-0.5,0-0.9-0.2-1.2-0.5S0,17.9,0,17.5c0-0.5,0.2-0.9,0.5-1.2s0.7-0.4,1.2-0.4c0.5,0,0.9,0.1,1.2,0.4
		s0.5,0.7,0.5,1.2c0,0.5-0.2,0.8-0.5,1.1S2.2,19.1,1.7,19.1z"/>
	<path d="M15.8,17.8c-0.6,0.4-1.4,0.7-2.2,0.9c-0.8,0.2-1.7,0.3-2.7,0.3c-2.2,0-3.9-0.6-5.1-1.7c-1.3-1.1-1.9-2.9-1.9-5.1
		c0-2.1,0.7-3.8,2-5.2s3.1-2.1,5.4-2.1c0.9,0,1.6,0.1,2.4,0.2s1.5,0.4,2.2,0.7l-1,2.3c-0.6-0.3-1.2-0.5-1.8-0.6
		c-0.6-0.1-1.2-0.2-1.9-0.2c-1.3,0-2.3,0.4-3.1,1.2s-1.1,1.9-1.1,3.5c0,1.5,0.4,2.7,1.1,3.4c0.7,0.7,1.7,1.1,3,1.1
		c0.4,0,0.7,0,1-0.1s0.6-0.1,0.8-0.2v-2.8h-2.8v-2.4h5.7V17.8z"/>
	<path d="M17.2,18.8V5.2H22c2.4,0,4.2,0.6,5.5,1.7c1.2,1.1,1.8,2.8,1.8,5c0,2.1-0.7,3.8-2,5.1c-1.3,1.3-3.1,1.9-5.3,1.9H17.2z
		 M20.2,7.6v8.8h1.6c1.4,0,2.4-0.4,3.2-1.2s1.2-1.9,1.2-3.3c0-1.3-0.4-2.4-1.1-3.1c-0.8-0.8-1.8-1.1-3.2-1.1H20.2z"/>
	<path d="M30.3,18.8V5.2h4.9c1.5,0,2.7,0.3,3.5,0.9c0.8,0.6,1.2,1.4,1.2,2.4c0,0.7-0.2,1.4-0.7,1.9c-0.4,0.5-1,0.9-1.7,1.2v0
		c0.9,0.1,1.6,0.5,2.1,1c0.5,0.6,0.8,1.3,0.8,2.1c0,1.2-0.4,2.2-1.3,3c-0.9,0.7-2.1,1.1-3.6,1.1H30.3z M33.2,7.4v3.4h1.4
		c0.6,0,1.2-0.2,1.5-0.5c0.4-0.3,0.6-0.7,0.6-1.3s-0.2-1-0.6-1.2c-0.4-0.3-1-0.4-1.7-0.4H33.2z M33.2,13v3.6h1.7
		c0.7,0,1.3-0.2,1.7-0.5c0.4-0.3,0.6-0.8,0.6-1.4c0-0.5-0.2-1-0.6-1.3c-0.4-0.3-1-0.5-1.7-0.5H33.2z"/>
</g>
</svg>
