
<svg xmlns="http://www.w3.org/2000/svg"
	 viewBox="0 0 24 24" xml:space="preserve">
<path fill="currentColor" opacity="0.3" d="M18.6,17.3H6.8c-0.9,0-1.6-0.7-1.6-1.6V8.3c0-0.9,0.7-1.6,1.6-1.6h11.8c0.9,0,1.6,0.7,1.6,1.6v7.4
	C20.2,16.6,19.5,17.3,18.6,17.3z M6.8,7.5C6.4,7.5,6,7.9,6,8.3v7.4c0,0.4,0.3,0.8,0.8,0.8h11.8c0.4,0,0.8-0.3,0.8-0.8V8.3
	c0-0.4-0.3-0.8-0.8-0.8H6.8z"/>
<circle fill="currentColor" cx="12.7" cy="12" r="2"/>
<circle fill="currentColor" cx="20.7" cy="21.1" r="2"/>
<circle fill="currentColor" cx="3.3" cy="12" r="2"/>
<circle fill="currentColor" cx="12.7" cy="2.9" r="2"/>
<rect fill="currentColor" x="12.2" y="2.9" width="1" height="9.1"/>
<rect fill="currentColor" x="3.8" y="11.5" width="9.1" height="1"/>
<rect fill="currentColor" x="16.1" y="10.1" transform="matrix(0.7071 -0.7071 0.7071 0.7071 -6.5818 16.4749)" width="1" height="12.2"/>
</svg>
