<?xml version="1.0" encoding="utf-8"?>
<!-- Generator: Adobe Illustrator 27.0.1, SVG Export Plug-In . SVG Version: 6.00 Build 0)  -->
<svg version="1.1" id="Layer_1" xmlns="http://www.w3.org/2000/svg" xmlns:xlink="http://www.w3.org/1999/xlink" x="0px" y="0px"
	 viewBox="0 0 40.4 24" style="enable-background:new 0 0 40.4 24;" xml:space="preserve">
<g fill="currentColor">
	<path d="M2.6,18.8c-0.5,0-0.9-0.1-1.2-0.4C1.1,18.1,1,17.7,1,17.2c0-0.5,0.2-0.8,0.5-1.1c0.3-0.3,0.7-0.4,1.2-0.4
		c0.5,0,0.9,0.1,1.2,0.4c0.3,0.3,0.5,0.7,0.5,1.1c0,0.4-0.2,0.8-0.5,1.1C3.5,18.6,3.1,18.8,2.6,18.8z"/>
	<path d="M15.3,17.9c-0.7,0.3-1.4,0.6-2,0.7c-0.7,0.1-1.4,0.2-2.1,0.2c-2,0-3.6-0.6-4.8-1.7c-1.2-1.1-1.8-2.8-1.8-4.9
		c0-2,0.6-3.7,1.9-5s3-2,5-2c0.7,0,1.3,0.1,1.9,0.2s1.1,0.3,1.7,0.5l-0.9,2.3C13.9,8,13.4,7.9,13,7.8s-0.9-0.1-1.4-0.1
		c-1.1,0-2.1,0.4-2.8,1.2S7.6,10.7,7.6,12c0,1.3,0.3,2.4,1,3.2c0.7,0.8,1.7,1.1,2.9,1.1c0.3,0,0.8-0.1,1.2-0.2s1-0.3,1.5-0.5
		L15.3,17.9z"/>
	<path d="M14.6,18.6l4.8-13.1h3.4l4.7,13.1h-3.1l-0.9-2.8h-4.8l-0.9,2.8H14.6z M19.2,13.5h3.5l-1.5-4.6c-0.1-0.2-0.1-0.3-0.1-0.5
		c0-0.1-0.1-0.3-0.1-0.5h-0.1c0,0.2-0.1,0.3-0.1,0.5c0,0.1-0.1,0.3-0.1,0.4L19.2,13.5z"/>
	<path d="M27.9,18.6V5.4h4.6c2.3,0,4.1,0.5,5.2,1.6c1.2,1.1,1.7,2.7,1.7,4.8c0,2-0.6,3.7-1.9,4.9c-1.3,1.2-3,1.8-5.1,1.8H27.9z
		 M30.7,7.8v8.5h1.5c1.3,0,2.3-0.4,3.1-1.2c0.7-0.8,1.1-1.8,1.1-3.2c0-1.3-0.4-2.3-1.1-3c-0.7-0.7-1.8-1.1-3.1-1.1H30.7z"/>
</g>
</svg>
