<?xml version="1.0" encoding="utf-8"?>
<!-- Generator: Adobe Illustrator 27.0.1, SVG Export Plug-In . SVG Version: 6.00 Build 0)  -->
<svg version="1.1" id="Layer_1" xmlns="http://www.w3.org/2000/svg" xmlns:xlink="http://www.w3.org/1999/xlink" x="0px" y="0px"
	 viewBox="0 0 40.4 24" style="enable-background:new 0 0 40.4 24;" xml:space="preserve">
<g fill="currentColor">
	<path d="M2.7,18.4c-0.5,0-1-0.2-1.3-0.5s-0.5-0.7-0.5-1.2c0-0.5,0.2-0.9,0.5-1.2S2.2,15,2.7,15c0.5,0,1,0.2,1.3,0.5
		s0.5,0.7,0.5,1.2c0,0.5-0.2,0.9-0.5,1.2C3.7,18.3,3.3,18.4,2.7,18.4z"/>
	<path d="M4.7,17.2L6,14.7c0.7,0.4,1.4,0.7,1.9,0.9s1.1,0.2,1.7,0.2c0.8,0,1.4-0.2,1.8-0.5c0.4-0.3,0.6-0.7,0.6-1.3
		c0-0.5-0.2-0.9-0.5-1.2c-0.3-0.3-0.9-0.5-1.7-0.7c-1.6-0.4-2.8-0.9-3.6-1.6C5.6,9.8,5.2,8.9,5.2,7.7c0-1.2,0.5-2.3,1.4-3.2
		s2.3-1.3,4-1.3c0.7,0,1.4,0.1,2.1,0.2c0.7,0.2,1.4,0.4,2,0.7l-1.2,2.5C13,6.4,12.5,6.2,12,6c-0.5-0.1-1-0.2-1.4-0.2
		C9.9,5.8,9.4,5.9,9,6.2C8.6,6.5,8.4,6.9,8.4,7.4c0,0.5,0.2,0.8,0.5,1.1c0.3,0.2,1,0.5,1.9,0.7c1.6,0.4,2.7,0.9,3.4,1.6
		s1.1,1.7,1.1,3c0,1.4-0.5,2.5-1.5,3.4s-2.4,1.3-4.2,1.3c-0.8,0-1.7-0.1-2.6-0.3C6.2,17.9,5.4,17.6,4.7,17.2z"/>
	<path d="M22.5,18.4c-2.1,0-3.8-0.7-5.2-2.1c-1.3-1.4-2-3.2-2-5.4c0-2.3,0.7-4.2,2-5.6c1.3-1.4,3.1-2.2,5.4-2.2
		c2.1,0,3.8,0.7,5.1,2.1c1.3,1.4,1.9,3.2,1.9,5.5c0,1.2-0.2,2.4-0.5,3.4c-0.4,1-0.9,1.9-1.7,2.5l2.3,2.1l-2.4,2.1l-2.5-2.7
		c-0.3,0.1-0.7,0.1-1.2,0.2C23.3,18.4,22.9,18.4,22.5,18.4z M22.6,6c-1.2,0-2.1,0.4-2.8,1.3c-0.7,0.9-1.1,2.1-1.1,3.5
		c0,1.5,0.4,2.7,1.1,3.5c0.7,0.9,1.6,1.3,2.8,1.3c1.2,0,2.1-0.4,2.8-1.3c0.7-0.8,1-2,1-3.5c0-1.5-0.3-2.8-1-3.6S23.8,6,22.6,6z"/>
	<path d="M39.6,18.2h-8.7V3.4h3.2v12.1h5.5V18.2z"/>
</g>
</svg>
