
<svg xmlns="http://www.w3.org/2000/svg" 
	 viewBox="0 0 24 24" xml:space="preserve">

<path fill="currentColor" d="M15,8h5l-6-6v5C14,7.6,14.4,8,15,8z"/>
<g fill="currentColor">
	<path d="M7.3,8.7c0,2-1.7,3.7-3.7,3.7S0,10.7,0,8.7S1.7,5,3.7,5S7.3,6.7,7.3,8.7z M5.5,8.3H4V6.8c0-0.2-0.1-0.4-0.4-0.4
		S3.3,6.6,3.3,6.8v1.5H1.8c-0.2,0-0.4,0.1-0.4,0.4S1.6,9,1.8,9h1.5v1.5c0,0.2,0.1,0.4,0.4,0.4S4,10.7,4,10.5V9h1.5
		c0.2,0,0.4-0.1,0.4-0.4S5.7,8.3,5.5,8.3z"/>
</g>
<path fill="currentColor" opacity="0.3" d="M14,2H5C4.4,2,4,2.4,4,3v18c0,0.6,0.4,1,1,1h14c0.6,0,1-0.4,1-1V8L14,2z"/>
<g>
	<path fill="currentColor" d="M7.2,20c-0.2,0-0.3,0-0.4-0.1c-0.1-0.1-0.1-0.2-0.1-0.4c0-0.1,0.1-0.3,0.2-0.4S7.1,19,7.2,19c0.2,0,0.3,0,0.4,0.1
		s0.1,0.2,0.1,0.4c0,0.1,0,0.3-0.1,0.4C7.5,19.9,7.4,20,7.2,20z"/>
	<path fill="currentColor" d="M10.9,19.9H10v-0.5h0c-0.1,0.2-0.3,0.3-0.4,0.4C9.5,19.9,9.3,20,9.1,20c-0.4,0-0.6-0.1-0.8-0.3S8,19.1,8,18.7v-1.9h0.9v1.8
		c0,0.2,0,0.4,0.1,0.5s0.2,0.2,0.4,0.2c0.2,0,0.3-0.1,0.4-0.2C10,19,10,18.8,10,18.6v-1.8h0.9V19.9z"/>
	<path fill="currentColor" d="M14.3,19.9h-1.1l-1-1.5h0v1.5h-0.9v-4.4h0.9v2.8h0l1-1.4h1.1l-1.1,1.4L14.3,19.9z"/>
	<path fill="currentColor" d="M16.4,19.5c-0.1,0.2-0.2,0.3-0.4,0.4c-0.2,0.1-0.3,0.1-0.6,0.1c-0.4,0-0.7-0.1-0.9-0.4c-0.2-0.3-0.4-0.7-0.4-1.1
		c0-0.5,0.1-0.9,0.4-1.2c0.3-0.3,0.6-0.5,1-0.5c0.2,0,0.4,0,0.5,0.1c0.1,0.1,0.3,0.2,0.3,0.3h0v-1.7h0.9v4.4h-0.9L16.4,19.5
		L16.4,19.5z M15,18.4c0,0.3,0.1,0.5,0.2,0.7c0.1,0.2,0.3,0.2,0.5,0.2c0.2,0,0.4-0.1,0.5-0.2c0.1-0.2,0.2-0.4,0.2-0.6v-0.3
		c0-0.2-0.1-0.4-0.2-0.5s-0.3-0.2-0.5-0.2c-0.2,0-0.4,0.1-0.5,0.3C15.1,17.9,15,18.1,15,18.4z"/>
</g>
</svg>
