
<svg xmlns="http://www.w3.org/2000/svg" 
	 viewBox="0 0 24 24" xml:space="preserve">

<path fill="currentColor" d="M15,8h5l-6-6v5C14,7.6,14.4,8,15,8z"/>
<g fill="currentColor">
	<path d="M7.3,8.7c0,2-1.7,3.7-3.7,3.7S0,10.7,0,8.7S1.7,5,3.7,5S7.3,6.7,7.3,8.7z M5.5,8.3H4V6.8c0-0.2-0.1-0.4-0.4-0.4
		S3.3,6.6,3.3,6.8v1.5H1.8c-0.2,0-0.4,0.1-0.4,0.4S1.6,9,1.8,9h1.5v1.5c0,0.2,0.1,0.4,0.4,0.4S4,10.7,4,10.5V9h1.5
		c0.2,0,0.4-0.1,0.4-0.4S5.7,8.3,5.5,8.3z"/>
</g>
<path fill="currentColor" opacity="0.3" d="M14,2H5C4.4,2,4,2.4,4,3v18c0,0.6,0.4,1,1,1h14c0.6,0,1-0.4,1-1V8L14,2z"/>
<g fill="currentColor">
	<path d="M7.3,19.5c-0.1,0-0.2,0-0.3-0.1c-0.1-0.1-0.1-0.2-0.1-0.3c0-0.1,0-0.2,0.1-0.3c0.1-0.1,0.2-0.1,0.3-0.1
		c0.1,0,0.2,0,0.3,0.1c0.1,0.1,0.1,0.2,0.1,0.3c0,0.1,0,0.2-0.1,0.3S7.5,19.5,7.3,19.5z"/>
	<path d="M10.9,19.2c-0.2,0.1-0.3,0.2-0.6,0.2s-0.4,0.1-0.7,0.1c-0.5,0-1-0.1-1.3-0.4c-0.3-0.3-0.5-0.7-0.5-1.3c0-0.5,0.2-1,0.5-1.3
		C8.7,16.2,9.1,16,9.7,16c0.2,0,0.4,0,0.6,0.1c0.2,0,0.4,0.1,0.6,0.2l-0.2,0.6c-0.2-0.1-0.3-0.1-0.4-0.1c-0.1,0-0.3,0-0.5,0
		c-0.3,0-0.6,0.1-0.8,0.3s-0.3,0.5-0.3,0.9c0,0.4,0.1,0.7,0.3,0.9c0.2,0.2,0.4,0.3,0.7,0.3c0.1,0,0.2,0,0.3,0c0.1,0,0.1,0,0.2-0.1
		v-0.7H9.4v-0.6h1.4V19.2z"/>
	<path d="M11.2,19.5V16h1.2c0.6,0,1.1,0.1,1.4,0.4c0.3,0.3,0.5,0.7,0.5,1.3c0,0.5-0.2,1-0.5,1.3s-0.8,0.5-1.3,0.5H11.2z M12,16.6
		v2.2h0.4c0.3,0,0.6-0.1,0.8-0.3s0.3-0.5,0.3-0.8c0-0.3-0.1-0.6-0.3-0.8s-0.5-0.3-0.8-0.3H12z"/>
	<path d="M14.5,19.5V16h1.2c0.4,0,0.7,0.1,0.9,0.2c0.2,0.1,0.3,0.4,0.3,0.6c0,0.2-0.1,0.3-0.2,0.5c-0.1,0.1-0.3,0.2-0.4,0.3v0
		c0.2,0,0.4,0.1,0.5,0.3c0.1,0.1,0.2,0.3,0.2,0.5c0,0.3-0.1,0.6-0.3,0.7s-0.5,0.3-0.9,0.3H14.5z M15.3,16.6v0.9h0.3
		c0.2,0,0.3,0,0.4-0.1c0.1-0.1,0.1-0.2,0.1-0.3s0-0.2-0.1-0.3c-0.1-0.1-0.2-0.1-0.4-0.1H15.3z M15.3,18v0.9h0.4c0.2,0,0.3,0,0.4-0.1
		c0.1-0.1,0.2-0.2,0.2-0.3c0-0.1-0.1-0.2-0.2-0.3C16,18.1,15.9,18,15.7,18H15.3z"/>
</g>
</svg>
