
<svg xmlns="http://www.w3.org/2000/svg"
	 viewBox="0 0 24 24" xml:space="preserve">

<path fill="currentColor" d="M22.1,16.9V6.2L12,0.4L2.7,5.7C2.2,6,1.9,6.5,1.9,7.1v10.7L12,23.6l9.3-5.4C21.8,18,22.1,17.5,22.1,16.9z"/>
<path fill="#FFFFFF" d="M18.1,8.6C18.1,8.6,18.1,8.6,18.1,8.6c-0.2-0.3-0.4-0.4-0.7-0.6c-1-0.6-2.1-1.2-3.1-1.8
	c-0.6-0.4-1.2-0.7-1.9-1.1C12.2,5,11.9,5,11.6,5.1c-0.4,0.2-0.8,0.4-1.2,0.7c0.2,0.1,0.3,0.2,0.5,0.3C12.5,7,14.1,8,15.8,8.9
	c0.5,0.3,0.9,0.7,1.1,1.2c0,1.3,0.1,2.7,0,4c0,0,0,0,0,0c-1.4,0.8-2.8,1.7-4.3,2.4c-0.1,0-0.3,0-0.4,0l0,0c-0.1,0-0.2,0-0.3,0
	c-0.1,0-0.3,0-0.4,0c0,0,0,0,0,0c-1.2-0.5-2.2-1.2-3.3-1.7c-0.4-0.2-0.9-0.3-1-0.9c0-1.5,0-3.1,0-4.6c0,0,0,0,0,0
	c0.1,0.1,0.3,0.1,0.4,0.2c1.5,0.9,3,1.7,4.5,2.6c0,0,0.1,0.1,0.1,0.1c0,0,0-0.1-0.1-0.1c0,0.2,0,0.5,0,0.7c0,0.3-0.1,0.7,0.1,1v0
	c0.4-0.2,0.8-0.4,1.2-0.7c0.3-0.2,0.5-0.4,0.5-0.7c0.1-0.4,0.1-0.9,0-1.3c-0.2-0.4-0.5-0.6-0.9-0.8c-0.5-0.2-1-0.5-1.5-0.8
	c-1.1-0.7-2.3-1.3-3.4-2c-0.2-0.1-0.4-0.1-0.6,0C7,7.8,6.5,8.1,6,8.4C5.8,8.4,5.7,8.6,5.7,8.8c0,2.1,0,4.2,0,6.3
	c0,0.2,0,0.4,0.3,0.4c0,0,0,0,0,0l0,0c1.9,1.1,3.8,2.2,5.7,3.3c0.3,0.2,0.5,0.1,0.7-0.1c1.7-1,3.5-2,5.3-3c0.2-0.1,0.4-0.3,0.5-0.6
	v0l0,0c0-0.1,0.1-0.1,0.1-0.2c0-2,0-4.1,0-6.1C18.3,8.8,18.3,8.7,18.1,8.6z M16.9,14.1C16.9,14.1,16.9,14.1,16.9,14.1
	C16.9,14.1,16.9,14.1,16.9,14.1z"/>
</svg>
