<?xml version="1.0" encoding="UTF-8"?>
<svg id="Layer_2" data-name="Layer 2" xmlns="http://www.w3.org/2000/svg" xmlns:xlink="http://www.w3.org/1999/xlink" viewBox="0 0 54.75 63">
  <defs>
    <linearGradient id="linear-gradient" x1="-135.5" y1="41.188" x2="-89" y2="41.188" gradientTransform="translate(-89 82.375) rotate(-180)" gradientUnits="userSpaceOnUse">
      <stop offset="0" stop-color="#93278f"/>
      <stop offset="1" stop-color="#af53ac"/>
    </linearGradient>
  </defs>
  <g id="Layer_1-2" data-name="Layer 1">
    <g>
      <g>
        <path d="m11.625.5c-2.131,0-3.875,1.744-3.875,3.875v54.25c0,2.131,1.744,3.875,3.875,3.875h38.75c2.131,0,3.875-1.744,3.875-3.875V16L38.75.5H11.625Z" style="fill: #fff;"/>
        <path d="m50.375,63H11.625c-2.413,0-4.375-1.963-4.375-4.375V4.375c0-2.413,1.962-4.375,4.375-4.375h27.332l15.793,15.793v42.832c0,2.412-1.963,4.375-4.375,4.375ZM11.625,1c-1.861,0-3.375,1.514-3.375,3.375v54.25c0,1.861,1.514,3.375,3.375,3.375h38.75c1.861,0,3.375-1.514,3.375-3.375V16.207L38.543,1H11.625Z" style="fill: #93278f;"/>
      </g>
      <path d="m44.581,52.812H8.125v1.938h36.456c1.055,0,1.919-.872,1.919-1.938v-1.938c0,1.066-.863,1.938-1.919,1.938Z" style="fill: #e6e6e6;"/>
      <path d="m42.625,16h11.625L38.75.5v11.625c0,2.131,1.744,3.875,3.875,3.875Z" style="fill: #93278f;"/>
      <path d="m0,31.5c0-1.066.872-1.938,1.938-1.938h42.625c1.066,0,1.938.872,1.938,1.938v19.375c0,1.066-.872,1.938-1.938,1.938H1.938c-1.066,0-1.938-.872-1.938-1.938v-19.375Z" style="fill: url(#linear-gradient);"/>
      <g>
        <path d="m7.408,44.979l3.33-4.129-3.137-3.891c-.16-.207-.305-.464-.305-.736,0-.543.416-.96.977-.96.416,0,.656.16.896.48l2.832,3.729,2.802-3.666c.257-.352.528-.544.96-.544s.896.353.896.896c0,.288-.111.513-.304.753l-3.138,3.904,3.298,4.114c.16.208.304.448.304.736,0,.544-.416.96-.977.96-.416,0-.656-.16-.896-.48l-3.009-3.921-2.961,3.857c-.272.353-.528.544-.96.544-.449,0-.896-.352-.896-.912,0-.271.111-.496.287-.736Z" style="fill: #fff;"/>
        <path d="m19.121,36.272c0-.545.432-.992.992-.992h.208c.433,0,.72.224.912.527l3.394,5.314,3.409-5.33c.208-.336.497-.512.896-.512h.208c.561,0,.992.447.992.992v9.379c0,.545-.432.977-.992.977-.527,0-.977-.447-.977-.977v-6.723l-2.736,4.114c-.209.32-.465.513-.833.513-.353,0-.608-.192-.815-.513l-2.722-4.081v6.706c0,.544-.433.96-.977.96s-.96-.416-.96-.96v-9.396Z" style="fill: #fff;"/>
        <path d="m33.009,36.24c0-.544.433-.977.993-.977.543,0,.976.433.976.977v8.516h5.074c.496,0,.896.399.896.896s-.4.896-.896.896h-6.05c-.561,0-.993-.432-.993-.992v-9.315Z" style="fill: #fff;"/>
      </g>
    </g>
  </g>
</svg>