<?xml version="1.0" encoding="UTF-8"?>
<svg id="Layer_2" data-name="Layer 2" xmlns="http://www.w3.org/2000/svg" xmlns:xlink="http://www.w3.org/1999/xlink" viewBox="0 0 54.75 63">
  <defs>
    <linearGradient id="linear-gradient" x1=".5" y1="41.188" x2="47" y2="41.188" gradientTransform="translate(47 82.375) rotate(-180)" gradientUnits="userSpaceOnUse">
      <stop offset="0" stop-color="#93278f"/>
      <stop offset="1" stop-color="#af53ac"/>
    </linearGradient>
  </defs>
  <g id="Layer_1-2" data-name="Layer 1">
    <g>
      <g>
        <path d="m11.625.5c-2.131,0-3.875,1.744-3.875,3.875v54.25c0,2.131,1.744,3.875,3.875,3.875h38.75c2.131,0,3.875-1.744,3.875-3.875V16L38.75.5H11.625Z" style="fill: #fff;"/>
        <path d="m50.375,63H11.625c-2.413,0-4.375-1.963-4.375-4.375V4.375c0-2.413,1.962-4.375,4.375-4.375h27.332l15.793,15.793v42.832c0,2.412-1.963,4.375-4.375,4.375ZM11.625,1c-1.861,0-3.375,1.514-3.375,3.375v54.25c0,1.861,1.514,3.375,3.375,3.375h38.75c1.861,0,3.375-1.514,3.375-3.375V16.207L38.543,1H11.625Z" style="fill: #93278f;"/>
      </g>
      <path d="m44.581,52.812H8.125v1.938h36.456c1.055,0,1.919-.872,1.919-1.938v-1.938c0,1.066-.863,1.938-1.919,1.938Z" style="fill: #e6e6e6;"/>
      <path d="m42.625,16h11.625L38.75.5v11.625c0,2.131,1.744,3.875,3.875,3.875Z" style="fill: #93278f;"/>
      <path d="m0,31.5c0-1.066.872-1.938,1.938-1.938h42.625c1.066,0,1.938.872,1.938,1.938v19.375c0,1.066-.872,1.938-1.938,1.938H1.938c-1.066,0-1.938-.872-1.938-1.938v-19.375Z" style="fill: url(#linear-gradient);"/>
      <g>
        <path d="m5.464,40.865v-.031c0-3.186,2.385-5.795,5.778-5.795,1.729,0,2.865.513,3.842,1.265.208.16.384.433.384.784,0,.545-.432.961-.976.961-.272,0-.464-.096-.592-.192-.769-.624-1.601-1.009-2.673-1.009-2.129,0-3.697,1.762-3.697,3.954v.032c0,2.193,1.553,3.969,3.697,3.969,1.185,0,1.985-.383,2.801-1.072.144-.127.352-.224.592-.224.496,0,.928.416.928.913,0,.303-.144.543-.32.703-1.057.929-2.257,1.505-4.066,1.505-3.265,0-5.698-2.545-5.698-5.763Z" style="fill: #fff;"/>
        <path d="m17.128,45.155l4.162-9.284c.224-.496.625-.8,1.185-.8h.096c.56,0,.944.304,1.168.8l4.161,9.284c.08.145.112.288.112.417,0,.527-.399.943-.928.943-.464,0-.784-.271-.96-.688l-.912-2.098h-5.442l-.944,2.161c-.16.4-.496.624-.913.624-.512,0-.912-.4-.912-.912,0-.145.048-.288.128-.448Zm7.331-3.169l-1.969-4.529-1.969,4.529h3.938Z" style="fill: #fff;"/>
        <path d="m30.137,36.225c0-.561.432-.993.992-.993h3.186c3.521,0,5.954,2.417,5.954,5.57v.032c0,3.152-2.433,5.602-5.954,5.602h-3.186c-.561,0-.992-.432-.992-.992v-9.219Zm4.178,8.419c2.353,0,3.889-1.585,3.889-3.778v-.031c0-2.193-1.536-3.81-3.889-3.81h-2.209v7.619h2.209Z" style="fill: #fff;"/>
      </g>
    </g>
  </g>
</svg>